<svg xmlns="http://www.w3.org/2000/svg" viewBox="0 0 293.57 262.05"><defs><style>.cls-1,.cls-2{fill:#232e44;}.cls-1{stroke:#232e44;stroke-miterlimit:10;stroke-width:2.2px;}.cls-3{fill:#00d9ff;}</style></defs><g id="Layer_2" data-name="Layer 2"><g id="Layer_1-2" data-name="Layer 1"><path class="cls-1" d="M19.53,136.15V210a.43.43,0,0,0,.43.43H43.57A.43.43,0,0,0,44,210V136.15a.43.43,0,0,0-.43-.43H20A.43.43,0,0,0,19.53,136.15Zm22.25,72.46h-20a.43.43,0,0,1-.43-.43V137.94a.43.43,0,0,1,.43-.43h20a.43.43,0,0,1,.43.43v70.24A.43.43,0,0,1,41.78,208.61Z"/><path class="cls-1" d="M63.29,136.15V210a.43.43,0,0,0,.43.43H87.33a.43.43,0,0,0,.43-.43V136.15a.43.43,0,0,0-.43-.43H63.72A.43.43,0,0,0,63.29,136.15Zm22.25,72.46h-20a.43.43,0,0,1-.43-.43V137.94a.43.43,0,0,1,.43-.43h20a.43.43,0,0,1,.43.43v70.24A.43.43,0,0,1,85.54,208.61Z"/><path class="cls-1" d="M205.81,136.15V210a.42.42,0,0,0,.42.43h23.61a.43.43,0,0,0,.43-.43V136.15a.43.43,0,0,0-.43-.43H206.23A.42.42,0,0,0,205.81,136.15Zm22.24,72.46H208a.43.43,0,0,1-.43-.43V137.94a.43.43,0,0,1,.43-.43h20a.43.43,0,0,1,.43.43v70.24A.43.43,0,0,1,228.05,208.61Z"/><path class="cls-1" d="M249.57,136.15V210a.42.42,0,0,0,.42.43H273.6A.43.43,0,0,0,274,210V136.15a.43.43,0,0,0-.43-.43H250A.42.42,0,0,0,249.57,136.15Zm22.24,72.46h-20a.43.43,0,0,1-.43-.43V137.94a.43.43,0,0,1,.43-.43h20a.43.43,0,0,1,.43.43v70.24A.43.43,0,0,1,271.81,208.61Z"/><path class="cls-2" d="M284.91,224.76H8.64a1.81,1.81,0,0,0-1.81,1.81v33.67a1.81,1.81,0,0,0,1.81,1.81H284.91a1.81,1.81,0,0,0,1.81-1.81V226.57A1.81,1.81,0,0,0,284.91,224.76ZM281,257.08H12.52a.72.72,0,0,1-.72-.72V230.43a.71.71,0,0,1,.72-.71H281a.71.71,0,0,1,.72.71v25.93A.72.72,0,0,1,281,257.08Z"/><path class="cls-1" d="M183.06,148.68v-.3c-.06-2.2-.12-4.48-.36-6.65l0-.25a2.59,2.59,0,0,0-1.72-2.21l-1.85-.68c-1.42-.55-3.07-1.17-4.69-1.72a82.44,82.44,0,0,0-12.55-3.14A86.79,86.79,0,0,0,150,132.49c-1.16,0-2.24-.06-3.27-.06a87.32,87.32,0,0,0-9.87.56,82.55,82.55,0,0,0-11.3,2c-2.28.58-4.49,1.23-6.58,1.91-1.59.52-3.19,1.12-4.74,1.71l-1.93.74a2.3,2.3,0,0,0-1.53,2l0,.25c-.15,1.68-.33,3.57-.39,5.41a79.24,79.24,0,0,0,1.18,17.1,73.79,73.79,0,0,0,3.62,13.12,70.4,70.4,0,0,0,13.5,22.25,72.26,72.26,0,0,0,16.62,13.7,2.48,2.48,0,0,0,2.88,0l.68-.43,1-.63c1.34-.86,2.6-1.68,3.8-2.55a70.65,70.65,0,0,0,26.61-38.15A76.64,76.64,0,0,0,183.06,148.68Zm-1.74,6.21a76.28,76.28,0,0,1-2.93,16.78,69.34,69.34,0,0,1-18.12,30.06,72.31,72.31,0,0,1-11.56,9.1,3.61,3.61,0,0,1-2,.59,3.79,3.79,0,0,1-2-.58,70.5,70.5,0,0,1-17-15,67.46,67.46,0,0,1-8.42-13.11,71.43,71.43,0,0,1-5.67-16.45,78.68,78.68,0,0,1-1.52-10.71,88.31,88.31,0,0,1-.07-10.09c.05-.87.12-1.61.21-2.26a3.66,3.66,0,0,1,2.35-2.88l2.31-.83c1.56-.55,3.17-1.12,4.79-1.63a76.52,76.52,0,0,1,10.15-2.39A85.6,85.6,0,0,1,147,134.24a80.88,80.88,0,0,1,11.28.75A86.18,86.18,0,0,1,174,138.62c.89.3,1.77.63,2.64.94l.08,0c.67.25,1.3.49,1.94.71a3.62,3.62,0,0,1,2.49,3.24A77.92,77.92,0,0,1,181.32,154.89Z"/><path class="cls-3" d="M169.09,160.27l-21.44,23.14c-1.74,1.89-3.23,2.81-4.55,2.83H143c-1.67,0-3.38-1.53-4.52-2.67l-12.24-12.41a2.68,2.68,0,0,1-.76-1.87,2.61,2.61,0,0,1,.77-1.85,2.64,2.64,0,0,1,1.86-.76,2.69,2.69,0,0,1,1.88.78l12.24,12.41a1.07,1.07,0,0,0,1.57,0l21.45-23.15a2.62,2.62,0,0,1,1.84-.84,2.55,2.55,0,0,1,1.88.71A2.61,2.61,0,0,1,169.09,160.27Z"/><path class="cls-2" d="M146.69,0a43.66,43.66,0,1,0,42.94,51.54,42.72,42.72,0,0,0,.73-7.88A43.72,43.72,0,0,0,146.69,0Zm37.92,46.53A37.48,37.48,0,0,1,181,60.14a38.53,38.53,0,0,1-20.42,18.91,37.44,37.44,0,0,1-13.84,2.63,38.2,38.2,0,0,1-37.9-35c-.07-1-.11-2-.11-3a38,38,0,1,1,76,0C184.71,44.72,184.68,45.68,184.61,46.53Z"/><path class="cls-3" d="M158.62,46.42c-2-2.09-5.32-4-10-5.68l-.72-.26V26l1.22.13a26.61,26.61,0,0,1,9.19,2.67v-6.4A25.56,25.56,0,0,0,149,20.55l-1.05-.05v-6h-2.63v6l-1,.1a14.47,14.47,0,0,0-9.06,3.94,10.86,10.86,0,0,0-3.35,8.06,11.12,11.12,0,0,0,2.57,7.47c1.76,2.09,5.16,4.08,10.11,5.91l.71.26v14l-1.17-.08a27.67,27.67,0,0,1-7.07-1.58,25.38,25.38,0,0,1-4.25-1.86V63.2a26.15,26.15,0,0,0,11.4,2.61l1.09,0v7h2.63V65.74l1-.11c4.07-.46,7.23-1.74,9.38-3.79a10.51,10.51,0,0,0,3.16-8A10.36,10.36,0,0,0,158.62,46.42Zm-13.31-6.85-1.59-.79c-3.45-1.72-5.2-4-5.2-6.67,0-2.23,1-5.05,5.5-5.88l1.29-.23Zm3.89,20.5-1.26.2v-13l1.54.67c3.57,1.55,5.39,3.67,5.39,6.3C154.87,56.51,153.88,59.34,149.2,60.07Z"/><path class="cls-2" d="M292.3,116.5l-.06,0L201.41,60.57a.42.42,0,0,0-.14-.09.39.39,0,0,0-.18,0,.43.43,0,0,0-.4.27l0,.14-.06.18-.12.4c-.09.22-.15.42-.22.63l-.4,1.12c-.27.75-.53,1.41-.8,2l-.06.17c-.12.28-.2.47-.29.66l-.29.68c-.07.17-.15.34-.23.51l-.39.84-.06.13c-.11.22-.22.42-.31.62l-.13.26-.16.31-.07.15c-.53,1-1.09,2-1.79,3.2l-1.11,1.76c-.84,1.31-1.77,2.6-2.73,3.84l-.56.71-.56.69-.06.08-.35.4q-.17.21-.36.42l-.54.62c-.16.19-.35.4-.55.61l-.08.09-.28.3c-.3.33-.69.73-1.08,1.12l-.06.07-.07.07-.5.49c-.14.15-.37.37-.6.58l-.21.2-.23.22-.8.74-.41.36-.43.38-.7.6c-.9.74-1.79,1.44-2.66,2.08l-.11.09-.59.42-.36.26-.66.46-.09.06c-.13.1-.31.22-.5.34l-.46.3-.37.25-.17.11c-.93.58-1.95,1.19-3,1.8l-.44.24-.4.22-.21.1-.06,0-.62.32-.15.06a1.38,1.38,0,0,1-.26.14l-.83.41c-1.16.55-2.27,1-3.3,1.45l-1.07.42-1.26.45-.53.19-.33.1c-.29.11-.63.22-1,.32l-.55.16-.84.25-1.15.31-.21.06-.59.14-.69.17-.32.08-.77.17-.71.14-.44.08-.08,0-.52.1-.25,0c-.83.15-1.78.29-2.92.43-.32,0-.66.08-1,.1a2.43,2.43,0,0,1-.36,0c-.16,0-.41,0-.66.07l-.36,0a.9.9,0,0,1-.28,0l-.91.06h-.22l-.44,0c-.2,0-.49,0-.78,0-1.18.06-2.48.06-3.74,0a4.34,4.34,0,0,1-.78,0h-.19c-.14,0-.3,0-.45,0h-.2l-.49,0-.47,0c-.46,0-.89-.07-1.31-.12s-.93-.09-1.43-.16l-.4,0-1-.14-1.29-.21-.3-.06-.42-.08-.51-.1-.64-.13c-.35-.07-.68-.14-1-.23l-.47-.11-.39-.09-.71-.19c-1-.26-2.17-.59-3.42-1l-1-.34a3.07,3.07,0,0,1-.32-.11c-.31-.11-.56-.19-.82-.31l-1-.39-1.09-.45c-.35-.14-.7-.3-1.06-.46l-.22-.1c-.47-.21-1-.44-1.44-.68l-.23-.12-.68-.32-.3-.17-.25-.13-2-1.08-1.15-.68-.61-.38-.38-.23-.71-.47c-.65-.42-1.3-.86-1.9-1.31l-1-.69-.82-.62c-.4-.32-.82-.64-1.21-1l-2-1.74-.39-.36c-.2-.17-.49-.44-.76-.72s-.36-.34-.55-.53l-.29-.28q-1.53-1.52-3.05-3.29l-.35-.4L102.48,79c-.16-.2-.33-.4-.49-.62s-.45-.57-.69-.91-.53-.69-.77-1-.49-.69-.72-1l-.08-.12L99.58,75l-.14-.21-.32-.51c-.08-.11-.21-.3-.32-.48s-.21-.33-.29-.47l-.38-.61c-.57-1-1.15-2-1.76-3.18a5.27,5.27,0,0,1-.32-.63c-.14-.27-.31-.59-.47-.94l-.43-.92a38.89,38.89,0,0,1-2.1-5.19.85.85,0,0,0-.08-.24,1.21,1.21,0,0,0-1.12-.74,1.33,1.33,0,0,0-.45.08h0l-.31.2L1.37,116.43a2.28,2.28,0,0,0-1.3,2.65,2.35,2.35,0,0,0,2.35,1.8H291.14a2.32,2.32,0,0,0,2.36-1.8A2.19,2.19,0,0,0,292.3,116.5Zm-16.05-1H17.32c-2.87,0-1.61-1.54-.61-2.16l71.81-44.2a1.33,1.33,0,0,1,1.9.57l.34.72c.18.37.33.68.47.94s.24.5.36.73c.75,1.43,1.34,2.48,1.92,3.42l.73,1.19.39.62.25.37a2.88,2.88,0,0,0,.23.34l.41.63.62.88.11.15.72,1,.77,1,1,1.17a3,3,0,0,0,.21.26l.26.31c.16.2.31.37.49.57,1,1.19,2.09,2.36,3.32,3.59l1,.91c.32.32.58.56.84.79s.35.33.51.48l.88.77c.3.27.49.42.68.58l.54.44c.49.41.95.78,1.32,1.06l.91.7.23.17.77.56c.74.53,1.43,1,2.12,1.46l.77.5,1,.65,1.31.78c.34.18.69.37,1,.58l.71.37.33.17.35.19a3.93,3.93,0,0,0,.36.18l.94.47c.45.23.82.4,1.18.57l.44.2c.45.21.91.4,1.39.6s.72.31,1.08.45l1.26.49.75.28.12,0,.25.1.17.06c.36.14.7.24,1,.35,1.07.36,2.27.72,3.7,1.11l1.74.42.94.21,1.64.33.63.12,1,.16.37.06c.48.08,1,.15,1.54.22s1.06.14,1.57.18,1,.1,1.42.13l.34,0h.26l.46,0H143l.78,0,.79,0c1.49.05,2.94.05,4.12,0l1.54-.06.86-.07.54,0c.37,0,.7,0,1.1-.1l1.46-.16c1-.12,2.05-.28,3.17-.47l.81-.15.64-.12.74-.16.9-.19.34-.08c.32-.07.54-.12.77-.19l.16,0,.41-.1.28-.07.76-.2.47-.13,1.41-.43,1.09-.35c.42-.13.75-.24,1-.35l.23-.08,1.11-.41.27-.1.94-.37c1.36-.55,2.55-1.07,3.62-1.59l.51-.25.21-.11.52-.25.18-.1c.23-.11.44-.21.63-.32l.29-.15.89-.48c1.28-.71,2.36-1.35,3.32-2l.9-.58.78-.52.27-.19.57-.39.3-.22c.3-.2.56-.39.85-.62,1-.77,2-1.52,2.85-2.24.29-.25.55-.46.79-.68l.23-.19.54-.48.13-.12c.21-.18.4-.35.58-.53s.54-.5.78-.75a8.11,8.11,0,0,0,.66-.63l.29-.28c.06-.06.12-.11.17-.17l.17-.17.37-.38c.29-.29.58-.59.87-.91s.28-.29.41-.44l.11-.12a5.9,5.9,0,0,0,.48-.55c.25-.26.44-.47.61-.68l.75-.88c.25-.3.48-.57.7-.87a4.49,4.49,0,0,0,.35-.44l.29-.35c1.08-1.41,2.08-2.82,3-4.15l.61-1c.15-.23.29-.46.43-.69l.19-.31c.65-1.07,1.27-2.18,1.9-3.39.06-.12.11-.22.15-.32l.14-.26c.09-.18.18-.35.26-.52l.29-.6.27-.82a1.23,1.23,0,0,1,1.81-.66l72.14,44.41C277.86,114,279.89,115.49,276.25,115.49Z"/></g></g></svg>