<svg xmlns="http://www.w3.org/2000/svg" viewBox="0 0 318.65 303.26"><defs><style>.cls-1,.cls-4,.cls-5{fill:#232e44;}.cls-2{fill:#fff;}.cls-3{fill:#00d9ff;}.cls-4,.cls-5,.cls-6{stroke:#232e44;stroke-miterlimit:10;}.cls-4,.cls-6{stroke-width:3px;}.cls-5{stroke-width:4px;}.cls-6{fill:none;stroke-linecap:round;}</style></defs><g id="Layer_2" data-name="Layer 2"><g id="Layer_1-2" data-name="Layer 1"><path class="cls-1" d="M187.16,214.07H170a10.62,10.62,0,0,1-10.62-10.61v-34A10.63,10.63,0,0,1,170,158.89h17.14a10.63,10.63,0,0,1,10.62,10.62v34A10.62,10.62,0,0,1,187.16,214.07ZM170,163.65a5.87,5.87,0,0,0-5.86,5.86v34a5.87,5.87,0,0,0,5.86,5.85h17.14a5.87,5.87,0,0,0,5.86-5.85v-34a5.87,5.87,0,0,0-5.86-5.86Z"/><rect class="cls-2" x="41.45" y="2.93" width="274.27" height="173.95" rx="10.43"/><path class="cls-1" d="M305.29,0H51.89A13.38,13.38,0,0,0,38.53,13.36V166.44A13.37,13.37,0,0,0,51.89,179.8h253.4a13.37,13.37,0,0,0,13.36-13.36V13.36A13.38,13.38,0,0,0,305.29,0Zm7.51,166.44a7.52,7.52,0,0,1-7.51,7.51H51.89a7.52,7.52,0,0,1-7.51-7.51V13.36a7.52,7.52,0,0,1,7.51-7.51h253.4a7.52,7.52,0,0,1,7.51,7.51Z"/><rect class="cls-2" x="44.38" y="5.85" width="268.42" height="168.1" rx="7.51"/><path class="cls-1" d="M54.9,45.69a1.5,1.5,0,0,1-1.5-1.5V25.93A10.6,10.6,0,0,1,64,15.35H74a1.5,1.5,0,0,1,0,3H64a7.59,7.59,0,0,0-7.58,7.58V44.19A1.5,1.5,0,0,1,54.9,45.69Z"/><path class="cls-1" d="M293.2,164.45H270a1.5,1.5,0,0,1,0-3H293.2a7.59,7.59,0,0,0,7.58-7.58v-16a1.5,1.5,0,0,1,3,0v16A10.59,10.59,0,0,1,293.2,164.45Z"/><path class="cls-1" d="M302.28,49.72a1.5,1.5,0,0,1-1.5-1.5V25.93a7.59,7.59,0,0,0-7.58-7.58H270a1.5,1.5,0,1,1,0-3H293.2a10.59,10.59,0,0,1,10.58,10.58V48.22A1.5,1.5,0,0,1,302.28,49.72Z"/><path class="cls-3" d="M237.24,89.89v0a55.87,55.87,0,0,0-16-40.15,59.54,59.54,0,0,0-41.55-18.38h-1.06a59.21,59.21,0,0,0-58.76,58.41,60.16,60.16,0,0,0,15.65,40.18c10.92,12,26.2,18.55,43,18.58h.08c16.26,0,31.22-6.15,42.11-17.33A57.38,57.38,0,0,0,237.24,89.89Zm-17.55,32.52a4.93,4.93,0,0,1-3.87,1.86,5.14,5.14,0,0,1-1.76-.31c-6.31-2.33-12-4.24-17.42-5.85a6.58,6.58,0,0,1-4.27-3,6,6,0,0,1-.09-4.67c1.89-5.82,4.11-11.56,6-16.43,1.75-4.44,3.37-9.24,2.18-14.55-.63-2.8-.2-5.88.29-8.8,1.13-6.61-.32-12.75-4.06-17.27s-9.52-7.07-16.24-7.19C167.48,46,159.56,51,157,61.12a23.73,23.73,0,0,0-.39,6.17c0,.85,0,1.69,0,2.53s0,1.92-.07,2.88a72.33,72.33,0,0,0,.08,8.33,62,62,0,0,0,2.09,11.73c.8,2.73,1.86,5.45,2.89,8.09.81,2.07,1.64,4.2,2.35,6.35,2.2,6.64.86,9.34-5.73,11.55-4.55,1.52-9.39,3.17-14.22,5a6.24,6.24,0,0,1-7.08-2A52.37,52.37,0,1,1,231,88.38,52.49,52.49,0,0,1,219.69,122.41Z"/><rect class="cls-2" x="133.55" y="192.2" width="90.08" height="24.98" rx="8.9"/><path class="cls-1" d="M214.74,219.56H142.45a11.29,11.29,0,0,1-11.28-11.27v-7.2a11.29,11.29,0,0,1,11.28-11.28h72.29A11.29,11.29,0,0,1,226,201.09v7.2A11.29,11.29,0,0,1,214.74,219.56Zm-72.29-25a6.52,6.52,0,0,0-6.52,6.51v7.2a6.52,6.52,0,0,0,6.52,6.51h72.29a6.52,6.52,0,0,0,6.51-6.51v-7.2a6.52,6.52,0,0,0-6.51-6.51Z"/><rect class="cls-2" x="2.69" y="126.12" width="82.01" height="133.47" rx="11.26"/><path class="cls-4" d="M73.44,260.77H14A12.46,12.46,0,0,1,1.5,248.33v-111A12.46,12.46,0,0,1,14,124.92H73.44a12.46,12.46,0,0,1,12.45,12.45v111A12.46,12.46,0,0,1,73.44,260.77ZM14,127.31A10.08,10.08,0,0,0,3.88,137.37v111A10.08,10.08,0,0,0,14,258.39H73.44a10.07,10.07,0,0,0,10.07-10.06v-111a10.07,10.07,0,0,0-10.07-10.06Z"/><path class="cls-3" d="M68.77,176.87h0a23.86,23.86,0,0,0-6.83-17.17,25.43,25.43,0,0,0-17.75-7.86h-.46a25.32,25.32,0,0,0-25.11,25A25.74,25.74,0,0,0,25.31,194a24.59,24.59,0,0,0,18.4,7.94h0a24.86,24.86,0,0,0,18-7.41A24.52,24.52,0,0,0,68.77,176.87ZM61,190.58a2,2,0,0,1-1.52.73,2.09,2.09,0,0,1-.69-.12c-2.69-1-5.12-1.81-7.42-2.49a2.62,2.62,0,0,1-1.7-1.18,2.32,2.32,0,0,1,0-1.86c.79-2.45,1.73-4.89,2.55-7a10.39,10.39,0,0,0,.93-6.28,9.91,9.91,0,0,1,.13-3.67,8.62,8.62,0,0,0-8.78-10.58c-5.6-.09-9,2.07-10.14,6.44a10.22,10.22,0,0,0-.17,2.66c0,.36,0,.72,0,1.07s0,.82,0,1.23a28,28,0,0,0,0,3.55,25.35,25.35,0,0,0,.89,5c.34,1.17.8,2.33,1.23,3.45.34.88.69,1.78,1,2.69.91,2.74.39,3.79-2.33,4.7-1.94.65-4,1.35-6,2.12a2.49,2.49,0,0,1-2.82-.81,22.08,22.08,0,1,1,39.65-14.05A22.13,22.13,0,0,1,61,190.58Z"/><rect class="cls-3" x="18.62" y="223.15" width="50.16" height="12.61" rx="2.29"/><path class="cls-5" d="M58.5,271.24c-.27-.77-.53-1.54-.81-2.31l-7-19.35q-2.11-5.85-4.24-11.71c-.49-1.35-1-2.7-1.44-4.06a5.59,5.59,0,0,1,1.34-5.94,5.88,5.88,0,0,1,9.74,2c1.61,4.38,3.18,8.77,4.77,13.16.42,1.16.85,2.31,1.32,3.56a6.14,6.14,0,0,1,5.48-3.1A5.91,5.91,0,0,1,72.87,247,6.25,6.25,0,0,1,78,243.93a5.83,5.83,0,0,1,5.21,2.8,17,17,0,0,1,1.25-1.16,5.58,5.58,0,0,1,7.21.33,14.31,14.31,0,0,1,4,5.93c1.85,4.84,3.62,9.71,5.36,14.58a39.09,39.09,0,0,1,1.8,6A24.34,24.34,0,0,1,82.19,301a23.87,23.87,0,0,1-17.64-4.39,24.65,24.65,0,0,1-5.22-5.13c-1.95-2.5-4-4.92-6-7.37-2.19-2.68-4.43-5.3-6.55-8A6,6,0,1,1,56.46,269c.62.79,1.27,1.55,1.91,2.33ZM78,299.15a22.94,22.94,0,0,0,13.37-3.84,21.73,21.73,0,0,0,8.7-11.64,22.1,22.1,0,0,0-.37-14.77c-1-2.64-1.9-5.3-2.88-7.94-1.15-3.08-2.26-6.17-3.53-9.21a9.5,9.5,0,0,0-3.55-4.63,3.35,3.35,0,0,0-3.68-.05,2.75,2.75,0,0,0-1.28,3.2,27.62,27.62,0,0,0,1,3c.45,1.3,1,2.59,1.4,3.89a1,1,0,0,1-.62,1.41,1.07,1.07,0,0,1-1.39-.69c-.06-.13-.11-.27-.16-.4-1-2.94-2.1-5.89-3.16-8.83a3.84,3.84,0,0,0-4.92-2.42,4,4,0,0,0-2.44,5.11l1.18,3.24q.81,2.24,1.59,4.47a1.11,1.11,0,0,1-.58,1.45,1.06,1.06,0,0,1-1.39-.69c-1.21-3.32-2.39-6.65-3.62-10a10.07,10.07,0,0,0-1.46-3,3.51,3.51,0,0,0-4.8-.6A4,4,0,0,0,63.7,251c1,2.74,2,5.51,3,8.27.23.64.48,1.27.65,1.92a1,1,0,0,1-.6,1.26,1,1,0,0,1-1.38-.58,12.5,12.5,0,0,1-.45-1.21q-2.8-7.71-5.59-15.41-2.61-7.22-5.21-14.44a3.8,3.8,0,0,0-4.65-2.45A3.73,3.73,0,0,0,46.94,233c.32,1.08.76,2.12,1.14,3.18l3.83,10.62,4,10.89q2.61,7.21,5.21,14.43c.56,1.55,1.13,3.09,1.67,4.65a1,1,0,0,1-.43,1.29,1.11,1.11,0,0,1-1.44-.3L58.4,274.7c-1.3-1.58-2.57-3.17-3.89-4.72a3.84,3.84,0,0,0-6,.11,3.92,3.92,0,0,0,.26,5.13q3.91,4.72,7.79,9.49c1.36,1.65,2.79,3.25,4.06,5A22,22,0,0,0,78,299.15Z"/><path class="cls-2" d="M78,299.15a22,22,0,0,1-17.36-9.47c-1.27-1.72-2.7-3.32-4.06-5q-3.88-4.75-7.79-9.49a3.92,3.92,0,0,1-.26-5.13,3.84,3.84,0,0,1,6-.11c1.32,1.55,2.59,3.14,3.89,4.72l2.49,3.06a1.11,1.11,0,0,0,1.44.3,1,1,0,0,0,.43-1.29c-.54-1.56-1.11-3.1-1.67-4.65q-2.6-7.22-5.21-14.43l-4-10.89-3.83-10.62c-.38-1.06-.82-2.1-1.14-3.18a3.73,3.73,0,0,1,2.55-4.67,3.8,3.8,0,0,1,4.65,2.45q2.59,7.22,5.21,14.44,2.79,7.71,5.59,15.41a12.5,12.5,0,0,0,.45,1.21,1,1,0,0,0,1.38.58,1,1,0,0,0,.6-1.26c-.17-.65-.42-1.28-.65-1.92-1-2.76-2-5.53-3-8.27a4,4,0,0,1,1.67-4.69,3.51,3.51,0,0,1,4.8.6,10.07,10.07,0,0,1,1.46,3c1.23,3.31,2.41,6.64,3.62,10a1.06,1.06,0,0,0,1.39.69,1.11,1.11,0,0,0,.58-1.45q-.78-2.24-1.59-4.47l-1.18-3.24a4,4,0,0,1,2.44-5.11,3.84,3.84,0,0,1,4.92,2.42c1.06,2.94,2.11,5.89,3.16,8.83,0,.13.1.27.16.4a1.07,1.07,0,0,0,1.39.69,1,1,0,0,0,.62-1.41c-.44-1.3-1-2.59-1.4-3.89a27.62,27.62,0,0,1-1-3,2.75,2.75,0,0,1,1.28-3.2,3.35,3.35,0,0,1,3.68.05,9.5,9.5,0,0,1,3.55,4.63c1.27,3,2.38,6.13,3.53,9.21,1,2.64,1.91,5.3,2.88,7.94a22.1,22.1,0,0,1,.37,14.77,21.73,21.73,0,0,1-8.7,11.64A22.94,22.94,0,0,1,78,299.15Z"/><line class="cls-6" x1="36.65" y1="136.6" x2="50.74" y2="136.6"/></g></g></svg>