<svg xmlns="http://www.w3.org/2000/svg" viewBox="0 0 317.7 274.23"><defs><style>.cls-1{fill:#00d9ff;}.cls-2,.cls-4{fill:#232e44;stroke:#232e44;stroke-miterlimit:10;}.cls-3{fill:#fff;}.cls-4{stroke-width:4px;}</style></defs><g id="Layer_2" data-name="Layer 2"><g id="Layer_1-2" data-name="Layer 1"><path class="cls-1" d="M245.89,106.4,242,120.17c-.26.82-.52,1.61-.76,2.39a.76.76,0,0,0,0,.11c-.22.66-.43,1.31-.64,2l-.39,1.2-5.41-4.33-10.3-8.24,7.24-2.32.13,0-.78-1.65-2.44-5.16a66,66,0,0,0-11-16.59,83.57,83.57,0,0,0-25.41-19.37l-.63-.29c-1-.49-2.09-1-3.15-1.39h0a2.26,2.26,0,0,1-1.18-3.06l.63-1.3a2.24,2.24,0,0,1,2.86-1.1l.52.21h0l.33.13c1.08.45,2.15.92,3.21,1.42s2.06,1,3.07,1.52a82.69,82.69,0,0,1,32,29.76c1.29,2.09,2.49,4.32,3.75,6.68l.11.19c.37.7.75,1.42,1.14,2.13l.6,1.09,2.61,4.77Z"/><path class="cls-1" d="M46.57,182.35l5-13.38c.34-.79.66-1.56,1-2.32a1.17,1.17,0,0,1,0-.11c.27-.64.54-1.27.8-1.9l.49-1.17,5,4.77,9.57,9.08L61.12,179l-.14,0,.64,1.71,2,5.35a66.16,66.16,0,0,0,9.53,17.45A83.5,83.5,0,0,0,96.83,225l.6.34c1,.58,2,1.13,3,1.65h0a2.25,2.25,0,0,1,.92,3.15l-.74,1.24a2.24,2.24,0,0,1-2.94.86l-.5-.26h0l-.31-.16c-1-.54-2.07-1.1-3.08-1.69s-2-1.16-2.93-1.77A82.8,82.8,0,0,1,61.49,196c-1.11-2.18-2.11-4.51-3.17-7l-.1-.2c-.31-.73-.62-1.47-.95-2.22l-.51-1.13-2.2-5Z"/><path class="cls-2" d="M134,32.79s0-.06,0-.08a8.16,8.16,0,0,0-1.65-2.78,8,8,0,0,0-5.92-2.71c0-2.59,0-5.07,0-7.55a9.9,9.9,0,0,0-.22-2.24A8.07,8.07,0,0,0,118,11.19q-34.12,0-68.27,0a2,2,0,0,1-1.89-.93C47,9,46.18,7.7,45.27,6.46a48.36,48.36,0,0,0-3.22-4.15A5.53,5.53,0,0,0,37.7.5c-9.67,0-19.33,0-29,0A9,9,0,0,0,5.77,1C2.43,2.22.51,5.21.51,9.08q0,49.2,0,98.41a8.12,8.12,0,0,0,8,8H113a7.64,7.64,0,0,0,4.81-1.67,9.15,9.15,0,0,0,3.19-6c1.28-7.36,2.69-14.7,4-22q4.05-21.79,8.09-43.6h0l1.05-5.58A7.56,7.56,0,0,0,134,32.79ZM5.86,9.06c0-2.25,1-3.2,3.23-3.2,9.3,0,18.6,0,27.9,0a2.21,2.21,0,0,1,2,1c.86,1.27,1.67,2.58,2.55,3.84s1.76,2.51,2.76,3.68a6.2,6.2,0,0,0,5,2.2q34.08,0,68.19,0a8.56,8.56,0,0,1,1,0A2.49,2.49,0,0,1,121,19c.08,2.7,0,5.41,0,8.25H22.59c-4.65,0-7.65,2.57-8.48,7.13C12.23,44.58,10.3,54.77,8.39,65q-.84,4.61-1.71,9.19c0,.07,0,.16,0,.27s0,.21-.06.33C6.27,76.45,5.86,79,5.86,79Zm123.06,27q-3.3,17.85-6.61,35.7-3.15,16.95-6.27,33.9c-.17.9-.32,1.8-.49,2.71a2.54,2.54,0,0,1-2.19,1.79,11.55,11.55,0,0,1-1.18,0H8.65A2.57,2.57,0,0,1,6,107c.68-3.76,1.4-7.52,2.09-11.28q3.15-16.93,6.28-33.89Q16.74,48.89,19.15,36a1.69,1.69,0,0,0,.05-.24c.46-2.65,1-3.13,3.69-3.13H126.31l.33,0h0a.45.45,0,0,1,.16,0l.36.08a2.19,2.19,0,0,1,.33.12l.17.08.2.1.19.13a1.64,1.64,0,0,1,.25.21s0,0,0,0a1.43,1.43,0,0,1,.2.23.38.38,0,0,1,.08.11h0a1.32,1.32,0,0,1,.12.2,1.69,1.69,0,0,1,.11.27c0,.1.07.2.09.3a1.8,1.8,0,0,1,.06.32A3.79,3.79,0,0,1,128.92,36.05Z"/><path class="cls-3" d="M60.75,110.18H8.65A2.57,2.57,0,0,1,6,107c.68-3.76,1.4-7.52,2.09-11.27q3.15-17,6.28-33.9Q16.74,48.89,19.15,36c0-.09,0-.17.05-.25.46-2.65,1-3.12,3.69-3.12h103c1.79,0,2.89.8,3.08,2.28a3.79,3.79,0,0,1-.09,1.16q-3.3,17.85-6.62,35.7-3.14,16.95-6.26,33.9c-.17.9-.32,1.8-.49,2.71a2.53,2.53,0,0,1-2.19,1.79,11.43,11.43,0,0,1-1.17,0Z"/><path class="cls-4" d="M315.4,213.42q-6-22.53-12.06-45a7,7,0,0,0-8.39-5c-3.6.82-7.12,2-10.73,2.64a21.14,21.14,0,0,1-7.34.31c-4.15-.75-8.3-1.53-12.45-2.31l-9.19-1.76-.49-.1q-9.58-1.86-19.16-3.79c-4.09-.83-7.88-1-11.53,1.46-2.19,1.45-4.65,3.64-6.88,3.53-2.38-.13-4.77-2.41-6.92-4.06a4.7,4.7,0,0,0-4.88-.62c-8.51,2.84-17,5.75-25.59,8.32a30.67,30.67,0,0,1-10.6,1.58c-4.49-.32-8.93-1.65-13.34-2.81-6.17-1.63-10.79.48-13.14,6.38q-6.59,16.53-13.07,33.08c-2.15,5.46-.24,10.46,5,13.13,4.14,2.11,8.3,4.16,12.76,6.38-1.94,2.44-3.52,5-2,7.85,2.62,4.84,6,9,11,11.83a25.28,25.28,0,0,1,5.23,4c3,2.92,6.16,5.34,10.25,6.45a7.19,7.19,0,0,1,2.82,1.56c3,2.73,6.12,5.14,10.29,5.87.9.16,1.66,1.12,2.47,1.74,2.32,1.77,4.53,3.73,6.94,5.35.12.08.23.16.36.23s.46.3.69.45c2.23,1.35,5.33,2,7.31.19,3.15-2.85,5.85-1.78,8.8-.37l.07,0,.33.17a18,18,0,0,0,2.75.87c8.82,2.48,17,1.65,24.06-4.76a3.88,3.88,0,0,1,2.15-.79c8.32-.82,15.11-4,19.13-11.83a3.52,3.52,0,0,1,2.31-1.21c8.95-1.65,13.24-5.86,15-14.59a3.54,3.54,0,0,1,1.76-2.12,20.48,20.48,0,0,0,8.52-6.82,5.6,5.6,0,0,1,2.91-2.08c6.57-1.76,13.2-3.34,19.79-5C314.51,220.66,316.49,217.52,315.4,213.42ZM156.51,239.89a46.94,46.94,0,0,1-7.12-8.61c-.46-.67.26-2.56,1-3.48a2.93,2.93,0,0,1,2.82-.25c5.19,3.23,10.27,6.65,15.6,10.15C164.93,242.38,160.31,243.24,156.51,239.89Zm8.55,6,6.94-4.71,8.17,6.75C176,253,169.39,251.92,165.06,245.84Zm13.72,8.68,4.83-3.73c1.75,1.4,3.54,2.83,5.31,4.28.48.39.9.84,1.35,1.26C187.12,259.59,183.09,258.94,178.78,254.52ZM198.94,267h0a2.36,2.36,0,0,1-.38,0h-.16a2.63,2.63,0,0,1-.39-.06,4.1,4.1,0,0,1-.48-.1,3.24,3.24,0,0,1-.41-.13l-.2-.07s-.06,0-.08,0l-.29-.11-.09,0-.39-.19-.15-.07-.36-.2-.3-.18-.27-.18a14.12,14.12,0,0,1-1.9-1.54l-.39-.39a22.35,22.35,0,0,1-1.94-2.25l2.93-2.35,7.79,5.93a1.16,1.16,0,0,0,.21.16l.65.5A4.91,4.91,0,0,1,198.94,267Zm85.14-40.29c-1.84,2.26-4.69,3.73-7.23,5.33-.53.33-1.85-.14-2.57-.6-4.93-3.17-9.79-6.44-14.67-9.67-.53-.35-1-1-1.61-1-1.05-.1-2.54-.29-3.12.28-1.17,1.19-.24,2.33,1,3.12,5.09,3.36,10.09,6.86,15.28,10,2.19,1.33,2.42,2.81,1.77,5-1.55,5.18-5.11,8-10.29,8.89a5.54,5.54,0,0,1-3.54-.89C254,244,249,240.61,244,237.29l-.79-.52a0,0,0,0,0,0,0l-.81-.53c-1.16-.77-2.31-.88-3.13.4s-.2,2.29.93,3l.7.47h0q5.85,3.9,11.72,7.77L257.2,251c-1.79,2.18-3.12,4.76-5.23,6.14-2.8,1.83-6.16,2.88-9.38,4-2,.68-3.84,0-5.59-1.32l-1.92-1.39c-1.92-1.37-3.88-2.71-5.83-4,0,0,0,0,0,0q-1.84-1.26-3.68-2.53c-1.22-.86-2.51-1.45-3.57,0s.06,2.49,1.25,3.32l3.1,2.14h0l7,4.83c.64.45,1.23.95,2,1.55a17.55,17.55,0,0,1-13.49,4.47c-.5,0-1-.08-1.5-.13l-.74-.1-.73-.11-.73-.13-.4-.07-.8-.17c-.53-.12-1.06-.25-1.57-.39l-.05,0h0c-1.06-.3-2.1-.64-3.12-1-.25-.1-.5-.19-.74-.3l-1.09-.46c-.43-.19-.86-.39-1.28-.6s-.75-.37-1.12-.57-.6-.32-.89-.5l-.57-.31h0a.05.05,0,0,1,0,0c-.37-.2-.72-.42-1.07-.64l-.15-.09c-.4-.24-.79-.5-1.19-.76l-.9-.62-1-.74-.49-.37c-.33-.24-.65-.48-1-.73-8.39-6.59-16.73-13.26-24.74-20.31a115.15,115.15,0,0,0-31.38-20.2c-2.88-1.21-5.63-2.72-8.41-4.16-3.27-1.68-4.25-4-3-7.33q6.75-17.25,13.62-34.44c1.34-3.35,3.62-4.34,7.15-3.43,4.19,1.08,8.34,2.41,12.59,3.08,6,1,11.76-.53,17.44-2.49,6.59-2.27,13.27-4.26,19.84-6.59,2.49-.88,4.57-1,6.61.85a24.38,24.38,0,0,0,2.86,1.9l-5.21,3.09c-5.17,3.06-10.44,6-15.49,9.23a18.08,18.08,0,0,0-5.1,4.95c-3.6,5.3-6.86,10.84-10.36,16.21a4.54,4.54,0,0,0-.19,5c2.91,5.8,9.26,8.45,16.19,6.71,6.41-1.61,11.53-5.42,16.56-9.49a14.5,14.5,0,0,1,5.19-2.71q13.45-3.63,27-6.85a6.54,6.54,0,0,1,4.44.6l4.74,2.88.18.1,8.25,5q11.06,6.8,22.09,13.63C286,217.23,287.37,222.7,284.08,226.74Zm25.1-8.86c-6.34,1.6-12.69,3.17-19.2,4.79-.2-1.9-.37-3.54-.59-5.61,1.27,0,2.36,0,3.44,0,1.35-.06,2.6-.62,2.27-2.09-.16-.77-1.53-1.94-2.18-1.84-5,.73-8.72-1.73-12.63-4.19-2.41-1.51-4.81-3-7.23-4.52-.78-.49-1.56-1-2.35-1.46l-6.42-4-3.68-2.26-2.28-1.4-5.59-3.42-.53-.33-.12-.07-5.57-3.39a4.9,4.9,0,0,0-3.37-.47q-16,3.95-31.89,8.14a9.66,9.66,0,0,0-3.06,1.77c-3.42,2.51-6.7,5.22-10.21,7.58a13.83,13.83,0,0,1-9.56,2.62,12.71,12.71,0,0,1-4.91-1.69c-3.2-2-3.4-3.47-1.41-6.62,2.74-4.34,5.34-8.78,8.27-13a17.78,17.78,0,0,1,5-4.93c10.14-6.17,20.44-12.06,30.6-18.18a9.92,9.92,0,0,1,7.54-1.29c7.07,1.41,14.14,2.83,21.21,4.2.16,0,.31.07.47.09q4.59.9,9.18,1.76l3.76.71c2.54.47,5.08.94,7.62,1.39a29.79,29.79,0,0,0,9.5-.31c3.38-.52,6.67-1.7,10-2.52,2.6-.64,3.56-.07,4.24,2.46q5.94,22,11.84,44.11C312.13,216.69,311.85,217.2,309.18,217.88Z"/><path class="cls-3" d="M235.33,263.69a17.62,17.62,0,0,1-13.49,4.47c-8.05-.56-15-4-21.2-8.89-8.38-6.59-16.72-13.26-24.72-20.31a115.59,115.59,0,0,0-31.39-20.2c-2.88-1.21-5.63-2.72-8.41-4.15-3.27-1.69-4.25-4-3-7.35q6.75-17.23,13.62-34.43c1.34-3.35,3.61-4.34,7.15-3.42,4.19,1.07,8.34,2.4,12.59,3.07,6,1,11.77-.53,17.44-2.49,6.59-2.27,13.28-4.26,19.85-6.59,2.48-.88,4.56-1,6.6.85a23.56,23.56,0,0,0,2.86,1.9l-5.2,3.09c-5.18,3-10.45,6-15.5,9.22a18.11,18.11,0,0,0-5.1,5c-3.6,5.3-6.86,10.84-10.36,16.21a4.54,4.54,0,0,0-.19,5c2.91,5.8,9.27,8.45,16.19,6.71,6.41-1.62,11.53-5.43,16.55-9.49a14.63,14.63,0,0,1,5.2-2.71q13.45-3.63,27-6.86a6.54,6.54,0,0,1,4.44.61c11.81,7.13,23.52,14.42,35.26,21.66,4.41,2.72,5.77,8.19,2.48,12.23-1.84,2.26-4.69,3.74-7.23,5.33-.53.34-1.85-.14-2.57-.6-4.93-3.17-9.79-6.44-14.67-9.67-.53-.35-1.05-1-1.61-1-1.05-.1-2.54-.29-3.12.29-1.17,1.18-.24,2.32,1,3.11,5.08,3.36,10.09,6.85,15.28,10,2.19,1.34,2.42,2.82,1.77,5-1.55,5.17-5.11,8-10.28,8.88a5.55,5.55,0,0,1-3.55-.89C254,244,249,240.61,244,237.29l-1.6-1.06c-1.17-.77-2.33-.88-3.14.4s-.21,2.29.93,3l12.44,8.24,4.6,3.05c-1.8,2.18-3.13,4.75-5.24,6.14-2.8,1.83-6.16,2.89-9.38,4-2,.68-3.84,0-5.59-1.32-3.75-2.76-7.63-5.32-11.45-8-1.22-.85-2.52-1.45-3.56,0s0,2.5,1.24,3.32q5,3.48,10.09,7C234,262.58,234.55,263.08,235.33,263.69Z"/><path class="cls-3" d="M290,222.67l-.59-5.61c1.27,0,2.36,0,3.44,0,1.35,0,2.6-.61,2.28-2.08-.17-.77-1.53-1.94-2.19-1.85-5,.74-8.72-1.73-12.63-4.18q-16.79-10.56-33.77-20.83a4.89,4.89,0,0,0-3.36-.47q-16,3.95-31.91,8.14a9.61,9.61,0,0,0-3.05,1.77c-3.42,2.51-6.7,5.22-10.21,7.58a13.83,13.83,0,0,1-9.56,2.62,12.71,12.71,0,0,1-4.91-1.69c-3.21-2-3.4-3.48-1.41-6.62,2.74-4.34,5.34-8.78,8.27-13a17.56,17.56,0,0,1,5.05-4.93c10.13-6.17,20.43-12.06,30.59-18.18a9.92,9.92,0,0,1,7.54-1.29c14.06,2.8,28.13,5.63,42.24,8.15a29.5,29.5,0,0,0,9.5-.31c3.38-.52,6.67-1.7,10-2.52,2.6-.64,3.56-.07,4.24,2.47q5.94,22,11.84,44.09c.74,2.76.46,3.26-2.21,3.93C302.84,219.48,296.49,221.05,290,222.67Z"/><path class="cls-3" d="M168.77,237.7c-3.84,4.68-8.46,5.54-12.27,2.19a46.62,46.62,0,0,1-7.11-8.62c-.46-.66.26-2.55,1-3.47a3,3,0,0,1,2.82-.25C158.37,230.78,163.45,234.2,168.77,237.7Z"/><path class="cls-3" d="M180.17,247.88c-4.14,5.07-10.78,4-15.1-2l6.93-4.7Z"/><path class="cls-3" d="M178.78,254.52l4.83-3.73c1.75,1.4,3.54,2.83,5.31,4.28.48.39.9.84,1.35,1.26C187.12,259.59,183.09,258.94,178.78,254.52Z"/><path class="cls-3" d="M190.77,261.45l2.92-2.34,8.65,6.58C199.26,268.46,194.85,266.88,190.77,261.45Z"/></g></g></svg>