<svg xmlns="http://www.w3.org/2000/svg" viewBox="0 0 297.93 309.9"><defs><style>.cls-1,.cls-3{fill:#232e44;}.cls-2{fill:#00d9ff;}.cls-3{stroke:#232e44;stroke-miterlimit:10;stroke-width:2px;}</style></defs><g id="Layer_2" data-name="Layer 2"><g id="Layer_1-2" data-name="Layer 1"><path class="cls-1" d="M221.66,86.8,112.16.35a1.64,1.64,0,0,0-1-.35,1.56,1.56,0,0,0-1,.35L.63,86.8A1.59,1.59,0,0,0,.1,88.64a1.6,1.6,0,0,0,1.56,1.1h219a1.56,1.56,0,0,0,1.55-1.1A1.59,1.59,0,0,0,221.66,86.8ZM17.07,84.17c-3.7,0-1.94-1.7-.89-2.54L109.82,7.7a2.11,2.11,0,0,1,2.64,0l93.66,73.93c1.06.84,3,2.54-.88,2.54Z"/><path class="cls-1" d="M116,219.91a103.76,103.76,0,0,1,.61-11.16c.15-1.44.35-2.88.58-4.42a.89.89,0,0,0-.19-.69.85.85,0,0,0-.65-.3H8.06a2,2,0,0,0-2,2V234.5a2,2,0,0,0,2,2H116.33a.85.85,0,0,0,.65-.3.88.88,0,0,0,.19-.68c-.23-1.54-.43-3-.58-4.42A104,104,0,0,1,116,219.91Zm-4.22,10.45.13,1.34h-101V208.11H111.89l-.13,1.35c-.34,3.48-.51,7-.51,10.45S111.42,226.89,111.76,230.36Z"/><path class="cls-1" d="M297.6,226.31a81,81,0,0,1-19.07,46.2A82,82,0,0,1,236,298.82c-2.39.6-5,1.08-7.47,1.53l-.2,0c-1.37.24-2.51.45-3.59.67l-5.52,1.07v7.59a.17.17,0,0,1-.26.14l-11.22-7.45-.57-.41L205.68,301l-2.1-1.52a.34.34,0,0,1,0-.55l15.35-10.19a.17.17,0,0,1,.26.14v7.23l7.72-1a66.4,66.4,0,0,0,19.14-5.38c26.31-12.08,41.69-32.36,45.74-60.29,5.67-39.21-21.67-77.34-60.93-85A79.6,79.6,0,0,0,216,143a75.81,75.81,0,0,0-75.44,64.2C136.19,235,145,258.83,166.83,277.9c2.28,2,2.27,2.89,2,3.93a2.55,2.55,0,0,1-2.54,1.91,3.06,3.06,0,0,1-1.9-.7,81.37,81.37,0,0,1-23.81-31.39,79.55,79.55,0,0,1-6.59-33.9,83.22,83.22,0,0,1,5.93-29,81.66,81.66,0,0,1,62.24-50,95.7,95.7,0,0,1,15-1.24c21.4,0,40.42,8.05,56.52,23.92C291.67,179.11,299.7,200.94,297.6,226.31Z"/><path class="cls-2" d="M267.76,195.42c-.59-1.25-1.25-2.51-2-3.75a57.29,57.29,0,0,0-99.7,0c-.68,1.19-1.33,2.46-1.94,3.75a57.18,57.18,0,0,0,0,49c.61,1.29,1.26,2.55,1.94,3.75a57.29,57.29,0,0,0,99.7,0c.71-1.25,1.37-2.52,2-3.76a57.37,57.37,0,0,0,0-49Zm-33-26.82a55,55,0,0,1,28.5,24l.46.81-.87.36a111.42,111.42,0,0,1-12.37,4.13l-.78.21-.21-.78a65.79,65.79,0,0,0-7.56-17.67,44.59,44.59,0,0,0-8-9.65l-3.19-2.84Zm-4.27,36.45-.05-.78.78-.09a131.21,131.21,0,0,0,15.72-2.66l.8-.19.17.81a87.19,87.19,0,0,1,0,35.54l-.17.81-.8-.19a128.59,128.59,0,0,0-15.72-2.66l-.78-.09.05-.78c.33-4.84.49-9.84.49-14.86S230.8,209.88,230.47,205.05Zm-7-38.4c10.35,3.82,19.08,15.51,23.36,31.27l.22.81-.82.19a130.1,130.1,0,0,1-15.23,2.6l-.82.09-.08-.84A139.34,139.34,0,0,0,226.91,180a66.18,66.18,0,0,0-2-6.95,33.5,33.5,0,0,0-2.34-5.24l-1.11-1.94Zm4.78,53.26c0,5-.16,9.88-.47,14.57l-.06.82-.82-.06a141.48,141.48,0,0,0-22,0l-.82.06,0-.82c-.31-4.68-.47-9.59-.47-14.57s.16-9.88.47-14.57l0-.82.82.06a141.48,141.48,0,0,0,22,0l.82-.06.06.82C228.13,210,228.29,214.93,228.29,219.91ZM216,165.27c2.24,0,5.61,4,8.37,15.38.72,2.94,1.35,6.12,1.87,9.52s1,7,1.3,10.86l.07.83-.82.06c-3.52.28-7.15.42-10.79.42s-7.27-.14-10.78-.42l-.82-.06.07-.83a139.1,139.1,0,0,1,3.16-20.38C210.36,169.32,213.72,165.27,216,165.27Zm-5.46.61-1.1,1.94A48.7,48.7,0,0,0,205,180a139.34,139.34,0,0,0-3.23,20.76l-.08.84-.83-.09a130.65,130.65,0,0,1-15.22-2.6l-.82-.19.22-.81c4.28-15.76,13-27.45,23.36-31.27Zm-9.06,68.88.06.79-.78.08A129,129,0,0,0,185,238.3l-.81.2-.18-.82a87.19,87.19,0,0,1,0-35.54l.18-.81.81.19a131,131,0,0,0,15.71,2.67l.78.08-.06.79c-.32,4.76-.48,9.75-.48,14.85S201.11,230,201.43,234.76Zm-32.76-42.2a55,55,0,0,1,28.5-24l4-1.47L198,170a45,45,0,0,0-8,9.65,65.57,65.57,0,0,0-7.56,17.67l-.21.78-.79-.21a112.81,112.81,0,0,1-12.37-4.13l-.87-.36ZM167,244.08l-.33-.7a54.55,54.55,0,0,1,0-46.95l.33-.69.71.29a111.81,111.81,0,0,0,13.17,4.44l.75.21-.16.75a89.9,89.9,0,0,0,0,37l.16.75-.75.21a113.65,113.65,0,0,0-13.17,4.43Zm30.21,27.14a55,55,0,0,1-28.5-24l-.47-.82.87-.35A112.81,112.81,0,0,1,181.44,242l.79-.21.21.79A65.64,65.64,0,0,0,190,260.2a45,45,0,0,0,8,9.65l3.2,2.84Zm11.23,1.95c-10.34-3.82-19.08-15.51-23.36-31.26l-.22-.82.82-.19a129.93,129.93,0,0,1,15.22-2.6l.83-.09.08.84A138.77,138.77,0,0,0,205,259.8a48.65,48.65,0,0,0,4.39,12.2l1.1,1.94Zm7.55,1.37c-2.23,0-5.59-4-8.37-15.37q-1.07-4.41-1.87-9.52c-.52-3.4-1-7-1.29-10.87l-.07-.81.82-.07a141.2,141.2,0,0,1,21.57,0l.82.07-.07.81a136.72,136.72,0,0,1-3.17,20.39C221.56,270.51,218.19,274.54,216,274.54Zm5.46-.6,1.11-1.94a48.46,48.46,0,0,0,4.39-12.2,139,139,0,0,0,3.23-20.75l.08-.84.82.09a130.1,130.1,0,0,1,15.23,2.6l.82.19-.22.82c-4.28,15.75-13,27.44-23.36,31.26Zm41.83-26.68a55,55,0,0,1-28.5,24l-4,1.47,3.19-2.84a44.59,44.59,0,0,0,8-9.65,65.65,65.65,0,0,0,7.56-17.67l.21-.78.78.21a110.73,110.73,0,0,1,12.37,4.13l.87.35Zm2-3.88-.33.7-.72-.3a113.06,113.06,0,0,0-13.17-4.43l-.74-.21.16-.75a89.89,89.89,0,0,0,0-37l-.16-.75.74-.21A109.45,109.45,0,0,0,264.23,196l.72-.29.33.69a54.55,54.55,0,0,1,0,46.95Z"/><path class="cls-3" d="M63.9,191H35.28a3.63,3.63,0,0,1-3.62-3.63V109.62A3.63,3.63,0,0,1,35.28,106H63.9a3.64,3.64,0,0,1,3.63,3.63v77.74A3.64,3.64,0,0,1,63.9,191ZM36.26,109a1.6,1.6,0,0,0-1.6,1.6v75.8a1.6,1.6,0,0,0,1.6,1.6H62.71a1.83,1.83,0,0,0,1.82-1.83V110.59a1.6,1.6,0,0,0-1.6-1.6Z"/><path class="cls-3" d="M118.28,191H96.83a3.62,3.62,0,0,1-3.62-3.62V109.62A3.64,3.64,0,0,1,96.84,106h28.62a3.62,3.62,0,0,1,3.62,3.62V169.8a3,3,0,0,1-.36,1.4A98,98,0,0,0,121,189,2.9,2.9,0,0,1,118.28,191ZM97.71,109a1.51,1.51,0,0,0-1.5,1.51v75.95A1.53,1.53,0,0,0,97.74,188H117a1.72,1.72,0,0,0,1.63-1.18,100.54,100.54,0,0,1,7.18-16.46,2.69,2.69,0,0,0,.32-1.27V110.43a1.45,1.45,0,0,0-1.44-1.44Z"/><path class="cls-3" d="M157,138.71a2.17,2.17,0,0,1-1-.25,2.23,2.23,0,0,1-1.2-2V109.62A3.64,3.64,0,0,1,158.4,106H187a3.64,3.64,0,0,1,3.63,3.63v12a2.21,2.21,0,0,1-1.64,2.14,98.09,98.09,0,0,0-30.72,14.49A2.27,2.27,0,0,1,157,138.71ZM158.4,109a.63.63,0,0,0-.63.63V135a100.81,100.81,0,0,1,29.87-13.92V109.62A.63.63,0,0,0,187,109Z"/></g></g></svg>