<svg xmlns="http://www.w3.org/2000/svg" viewBox="0 0 655.11 460.71"><defs><style>.cls-1{fill:#ffb000;}</style></defs><g id="Layer_2" data-name="Layer 2"><g id="Layer_1-2" data-name="Layer 1"><path class="cls-1" d="M570.75,107.53c-11.11,4.65-22.45,9-33.87,13-12.94,4.5-26.32,8.65-39.8,12.34-4.74,1.29-9.74,2.58-14.83,3.83-18.62,4.6-37.77,8.39-56.91,11.26-7.68,1.16-15.47,2.2-23.15,3.07-20.49,2.33-41.44,3.71-62.24,4.08-4,.09-8.12.13-12.4.13s-8.43,0-12.38-.13c-20.81-.37-41.75-1.75-62.24-4.08-7.68-.87-15.47-1.91-23.15-3.07-19.17-2.87-38.32-6.66-56.92-11.26-5-1.23-10-2.53-14.83-3.83-13.44-3.68-26.82-7.83-39.79-12.33-11.43-4-22.78-8.32-33.88-13,12.58,2.34,25.4,4.5,38.23,6.46,13.48,2.06,27,3.9,40.17,5.48,5.28.65,10,1.18,14.4,1.66,18.62,2,37.57,3.72,56.32,5,7.78.51,15,1,22.08,1.3,19.84,1,40,1.62,60,1.77,7.95.08,16,.08,23.9,0,20-.15,40.21-.75,60.05-1.77,7.19-.36,14.62-.8,22.09-1.31,18.9-1.26,37.86-2.94,56.32-5,4.34-.47,9.05-1,14.39-1.66,13.28-1.58,26.8-3.44,40.18-5.49C545.33,112,558.13,109.87,570.75,107.53Z"/><path class="cls-1" d="M170.46,66.66c9-1,18.16-1.92,27.31-2.74a220.54,220.54,0,0,0-20.29,37.34c-10.13-1.21-20.62-2.63-31.24-4.21A232,232,0,0,1,170.46,66.66Z"/><path class="cls-1" d="M225.78,25.64q4.75-.88,9.55-1.66a161.48,161.48,0,0,0-29.9,29.49q-12,1-23.87,2.22a216.28,216.28,0,0,1,40.06-29.27l0,0h0Z"/><path class="cls-1" d="M257.16,10.42c-3.43,1.73-6.79,3.58-10.08,5.6-2.27.31-4.52.65-6.76,1Q248.57,13.35,257.16,10.42Z"/><path class="cls-1" d="M249.67,60.18q4.83-.26,9.69-.47a296.42,296.42,0,0,0-14.67,47.82c-.68,0-1.36-.08-2-.14-15-1-30.27-2.31-45.34-3.89a213.86,213.86,0,0,1,19.42-41.16l9-.66C233.81,61.11,241.84,60.61,249.67,60.18Z"/><path class="cls-1" d="M278.83,18.55c1.66-.15,3.31-.28,5-.39-7.35,8.39-14.06,19-20,31.59q-7.33.31-14.61.71c-7.88.41-16,.92-24,1.5l-1.5.11a148.88,148.88,0,0,1,11.73-14.31,116.52,116.52,0,0,1,19.51-16.64h0q4.5-.59,9-1.09C268.9,19.46,273.93,19,278.83,18.55Z"/><path class="cls-1" d="M305.36.78A66.66,66.66,0,0,0,290.15,11.6h0q-5.94.36-11.83.88c-3.53.29-7.13.63-10.74,1A124.33,124.33,0,0,1,305.36.78Z"/><path class="cls-1" d="M314.63,58.18l2.49,0c-.84,14.32-1.43,31-1.94,52-16.47-.16-33.23-.65-49.86-1.47,1.1-14.68,3.11-32.29,8.36-49.61C287.33,58.6,301,58.29,314.63,58.18Z"/><path class="cls-1" d="M319.47,16.55H321c-1.35,10.05-2.39,20.23-3.23,31.87-1.07,0-2.13,0-3.19,0q-18.71.14-37.5.79,1.92-5.05,4.31-9.95a88.38,88.38,0,0,1,15.52-22C304.41,16.89,312,16.64,319.47,16.55Z"/><path class="cls-1" d="M323.48,0c-.59,3.52-1.13,7-1.65,10.43l-2.45,0c-5.17.08-10.36.21-15.57.43A55.43,55.43,0,0,1,323.48,0Z"/><path class="cls-1" d="M398,10.42q8.57,2.92,16.81,6.59-3.35-.53-6.72-1h0Q403.1,13,398,10.42Z"/><path class="cls-1" d="M473.54,55.69c-7.93-.82-15.9-1.55-23.86-2.22A161.69,161.69,0,0,0,419.75,24q4.81.78,9.58,1.67c1.37.24,2.74.5,4.14.76h0A217.23,217.23,0,0,1,473.54,55.69Z"/><path class="cls-1" d="M508.86,97.05c-10.62,1.58-21.11,3-31.24,4.21a220.54,220.54,0,0,0-20.29-37.34q13.69,1.23,27.31,2.74h0A232.79,232.79,0,0,1,508.86,97.05Z"/><path class="cls-1" d="M376.79,12.48Q370.91,12,365,11.6h0A66.64,66.64,0,0,0,349.74.78,124.41,124.41,0,0,1,387.5,13.49C383.7,13.1,380.16,12.76,376.79,12.48Z"/><path class="cls-1" d="M431.49,52.05l-1.5-.11c-8.8-.62-16.66-1.1-24-1.48-4.85-.27-9.73-.5-14.61-.71-6-12.62-12.7-23.21-20-31.61,1.66.13,3.33.26,5,.41,4.58.39,9.46.87,14.94,1.47,3,.33,6,.69,9,1.07h0a115.58,115.58,0,0,1,19.54,16.67A151.44,151.44,0,0,1,431.49,52.05Z"/><path class="cls-1" d="M457.78,103.5c-15.07,1.58-30.3,2.89-45.34,3.89-.67.06-1.35.09-2,.14a297.43,297.43,0,0,0-14.67-47.82c3.23.14,6.47.3,9.68.47,7.34.39,15.15.88,23.9,1.49,3,.21,6,.42,9,.66A213.05,213.05,0,0,1,457.78,103.5Z"/><path class="cls-1" d="M335.74,10.45l-2.48,0C332.75,7,332.2,3.52,331.62,0a55.52,55.52,0,0,1,19.67,10.88C346.09,10.66,340.9,10.53,335.74,10.45Z"/><path class="cls-1" d="M378,49.23c-12.49-.43-25-.7-37.47-.79l-3.21,0c-.84-11.64-1.88-21.82-3.23-31.87h1.51c7.51.09,15.05.34,22.58.75a88.65,88.65,0,0,1,15.52,22Q376.13,44.18,378,49.23Z"/><path class="cls-1" d="M389.78,108.71c-16.62.82-33.38,1.31-49.86,1.47-.51-21-1.1-37.7-1.94-52l2.51,0c13.6.11,27.28.42,40.93.92C386.67,76.42,388.68,94,389.78,108.71Z"/><path class="cls-1" d="M84.36,353.18c11.1-4.65,22.45-9,33.87-13,12.93-4.5,26.31-8.65,39.79-12.33,4.74-1.3,9.74-2.59,14.84-3.84,18.61-4.59,37.76-8.38,56.91-11.26,7.68-1.16,15.47-2.2,23.15-3.06,20.49-2.34,41.43-3.72,62.24-4.09,3.95-.09,8.11-.13,12.39-.13s8.43,0,12.39.13c20.8.37,41.74,1.75,62.24,4.09,7.68.86,15.47,1.9,23.15,3.06,19.16,2.88,38.31,6.67,56.92,11.26,5,1.23,10,2.53,14.82,3.84,13.44,3.67,26.83,7.82,39.8,12.32,11.43,4,22.77,8.32,33.88,13-12.59-2.33-25.4-4.5-38.23-6.46-13.48-2.06-27-3.9-40.18-5.48-5.28-.64-10-1.18-14.39-1.65-18.62-2-37.57-3.72-56.32-5-7.79-.52-15-.95-22.08-1.31-19.84-1-40-1.62-60.05-1.77-7.95-.08-16-.08-23.9,0-20,.15-40.2.75-60.05,1.77-7.18.37-14.61.81-22.08,1.32-18.9,1.26-37.86,2.93-56.32,5-4.34.46-9.05,1-14.4,1.65-13.27,1.59-26.79,3.44-40.17,5.49C109.78,348.68,97,350.85,84.36,353.18Z"/><path class="cls-1" d="M484.65,394.05q-13.56,1.5-27.31,2.74a220.43,220.43,0,0,0,20.29-37.33c10.12,1.2,20.62,2.63,31.24,4.2A232.86,232.86,0,0,1,484.65,394.05Z"/><path class="cls-1" d="M429.33,435.08c-3.17.58-6.35,1.13-9.56,1.65a161.47,161.47,0,0,0,29.91-29.48q12-1,23.87-2.22a216.93,216.93,0,0,1-40.07,29.27h0Z"/><path class="cls-1" d="M398,450.29c3.42-1.73,6.79-3.58,10.08-5.6,2.26-.3,4.52-.65,6.76-1C409.28,446.14,403.67,448.35,398,450.29Z"/><path class="cls-1" d="M405.43,400.53q-4.81.25-9.68.48a297.88,297.88,0,0,0,14.67-47.83c.68.05,1.36.09,2,.15,15,1,30.27,2.3,45.34,3.88a214.45,214.45,0,0,1-19.42,41.16c-3,.24-6.05.46-9.06.66C421.3,399.61,413.27,400.1,405.43,400.53Z"/><path class="cls-1" d="M376.27,442.17c-1.65.14-3.3.28-5,.39,7.35-8.4,14.07-19,20-31.6,4.88-.21,9.76-.44,14.61-.71,7.88-.41,16-.92,24-1.49l1.5-.11A150.05,150.05,0,0,1,419.76,423a115.71,115.71,0,0,1-19.51,16.65h0c-3,.39-6,.74-9,1.08C386.2,441.25,381.17,441.75,376.27,442.17Z"/><path class="cls-1" d="M349.75,459.93A66.39,66.39,0,0,0,365,449.11h0q5.94-.36,11.83-.87c3.53-.3,7.13-.64,10.73-1A124,124,0,0,1,349.75,459.93Z"/><path class="cls-1" d="M340.47,402.53l-2.48,0c.84-14.31,1.42-31,1.94-52,16.47.15,33.22.64,49.86,1.46-1.1,14.68-3.11,32.29-8.36,49.62C367.78,402.12,354.08,402.42,340.47,402.53Z"/><path class="cls-1" d="M335.64,444.17h-1.5c1.35-10.05,2.39-20.24,3.23-31.88l3.19,0c12.46-.1,25-.37,37.49-.79q-1.92,5-4.3,9.94a88.46,88.46,0,0,1-15.52,22C350.7,443.82,343.14,444.07,335.64,444.17Z"/><path class="cls-1" d="M331.63,460.71c.58-3.52,1.13-7,1.64-10.43l2.45,0q7.77-.11,15.57-.43A55.39,55.39,0,0,1,331.63,460.71Z"/><path class="cls-1" d="M257.15,450.29q-8.55-2.91-16.8-6.59,3.35.54,6.71,1h0Q252,447.7,257.15,450.29Z"/><path class="cls-1" d="M181.57,405c7.93.81,15.9,1.55,23.86,2.22a161.64,161.64,0,0,0,29.92,29.5q-4.8-.79-9.57-1.67c-1.37-.25-2.75-.5-4.15-.77h0A217.3,217.3,0,0,1,181.57,405Z"/><path class="cls-1" d="M146.24,363.66c10.63-1.57,21.12-3,31.25-4.2a220.41,220.41,0,0,0,20.28,37.33c-9.12-.82-18.24-1.73-27.3-2.74h0A233.7,233.7,0,0,1,146.24,363.66Z"/><path class="cls-1" d="M278.32,448.24q5.88.51,11.83.87s0,0,0,0a67.17,67.17,0,0,0,15.21,10.8,124,124,0,0,1-37.76-12.71C271.41,447.61,274.94,448,278.32,448.24Z"/><path class="cls-1" d="M223.62,408.66l1.5.11c8.8.62,16.65,1.11,24,1.48q7.28.4,14.61.71c6,12.63,12.7,23.21,20,31.61-1.65-.12-3.32-.26-5-.4-4.58-.39-9.47-.88-14.94-1.48-3-.33-6-.69-9-1.07h0A115.65,115.65,0,0,1,235.35,423,150.1,150.1,0,0,1,223.62,408.66Z"/><path class="cls-1" d="M197.32,357.21c15.08-1.58,30.31-2.88,45.34-3.88.67-.06,1.36-.1,2-.15A296.87,296.87,0,0,0,259.37,401c-3.23-.15-6.47-.31-9.69-.48-7.33-.39-15.14-.88-23.89-1.49q-4.51-.3-9-.65A213.44,213.44,0,0,1,197.32,357.21Z"/><path class="cls-1" d="M319.37,450.26l2.47,0c.51,3.45,1.06,6.91,1.65,10.43a55.43,55.43,0,0,1-19.67-10.88Q311.61,450.16,319.37,450.26Z"/><path class="cls-1" d="M277.06,411.49c12.49.42,25,.69,37.47.79l3.22,0c.84,11.64,1.88,21.83,3.23,31.88h-1.51c-7.51-.1-15.05-.35-22.58-.76a88.52,88.52,0,0,1-15.53-22Q279,416.53,277.06,411.49Z"/><path class="cls-1" d="M265.33,352c16.62-.82,33.37-1.31,49.86-1.46.51,21,1.1,37.7,1.94,52l-2.51,0c-13.6-.11-27.29-.41-40.93-.91C268.44,384.29,266.43,366.68,265.33,352Z"/><path class="cls-1" d="M57.23,259.51q-9.48,5.69-23.58,5.68-15.63,0-24.64-9T0,231.41q0-15.87,9.85-25.88t26.2-10a51.49,51.49,0,0,1,18.16,3v14.24q-7.5-4.51-18.34-4.51a19.3,19.3,0,0,0-14.8,6.13q-5.71,6.12-5.71,16.37t5.12,16.06q5.13,5.7,13.85,5.69a18.68,18.68,0,0,0,8.31-1.55V237.76h-13V225.64H57.23Z"/><path class="cls-1" d="M122.08,259.51q-9.49,5.69-23.58,5.68-15.63,0-24.64-9t-9-24.78q0-15.87,9.85-25.88t26.2-10a51.42,51.42,0,0,1,18.16,3v14.24q-7.5-4.51-18.34-4.51a19.27,19.27,0,0,0-14.79,6.13q-5.72,6.12-5.72,16.37t5.13,16.06q5.13,5.7,13.84,5.69a18.7,18.7,0,0,0,8.32-1.55V237.76h-13V225.64h27.56Z"/><path class="cls-1" d="M155.37,261.43v-15a27.31,27.31,0,0,0,8.54,5.14,26.33,26.33,0,0,0,9.3,1.72,19.57,19.57,0,0,0,4.81-.52,11,11,0,0,0,3.44-1.43,6.18,6.18,0,0,0,2-2.16,5.58,5.58,0,0,0,.68-2.7,6,6,0,0,0-1.09-3.53,11.69,11.69,0,0,0-2.95-2.86,31.2,31.2,0,0,0-4.45-2.54q-2.58-1.22-5.56-2.49-7.59-3.28-11.31-8a18,18,0,0,1-3.73-11.47,18.91,18.91,0,0,1,2-9,17.79,17.79,0,0,1,5.53-6.22,24.44,24.44,0,0,1,8.11-3.6,40.53,40.53,0,0,1,9.76-1.15,55.7,55.7,0,0,1,9,.64,33.89,33.89,0,0,1,7.2,2v14a21.57,21.57,0,0,0-3.54-2.06,28.74,28.74,0,0,0-8-2.35,27.18,27.18,0,0,0-3.82-.28,19.06,19.06,0,0,0-4.51.49,11.55,11.55,0,0,0-3.44,1.38,6.93,6.93,0,0,0-2.17,2.14,5.23,5.23,0,0,0-.76,2.8,5.54,5.54,0,0,0,.85,3,10.32,10.32,0,0,0,2.44,2.53,26.42,26.42,0,0,0,3.84,2.35q2.26,1.15,5.11,2.38a55.31,55.31,0,0,1,7,3.59,25.14,25.14,0,0,1,5.31,4.3,16.78,16.78,0,0,1,3.38,5.47,20.08,20.08,0,0,1,1.18,7.16,19.83,19.83,0,0,1-2.06,9.47,17.1,17.1,0,0,1-5.58,6.2,23.71,23.71,0,0,1-8.2,3.41,45.48,45.48,0,0,1-9.87,1,52.58,52.58,0,0,1-10.14-.94A29.43,29.43,0,0,1,155.37,261.43Z"/><path class="cls-1" d="M236.66,265.19q-13.92,0-22.68-9.42t-8.76-24.54q0-16,8.9-25.84t23.57-9.87q13.88,0,22.43,9.45t8.56,24.89q0,15.88-8.87,25.61T236.66,265.19Zm.63-56.61a14.49,14.49,0,0,0-12.2,6q-4.51,6-4.52,15.86t4.52,15.83a15.22,15.22,0,0,0,23.81.16q4.42-5.65,4.42-15.71,0-10.49-4.29-16.3A13.78,13.78,0,0,0,237.29,208.58Z"/><path class="cls-1" d="M317.08,264H278.51V196.65H293.1v55.06h24Z"/><path class="cls-1" d="M377.68,234.84q0,30.35-27.19,30.35-26.39,0-26.38-29.64v-38.9h14.63v39.09q0,16.33,12.29,16.34,12.06,0,12.06-15.78V196.65h14.59Z"/><path class="cls-1" d="M436.34,209H417.86v55H403.23V209H384.84V196.65h51.5Z"/><path class="cls-1" d="M464.14,196.65v11.74h-5.42v43.88h5.42V264H438.71V252.27h5.42V208.39h-5.42V196.65Z"/><path class="cls-1" d="M499.9,265.19q-13.92,0-22.68-9.42t-8.76-24.54q0-16,8.9-25.84t23.58-9.87q13.86,0,22.42,9.45t8.56,24.89q0,15.88-8.87,25.61T499.9,265.19Zm.63-56.61a14.49,14.49,0,0,0-12.2,6q-4.51,6-4.51,15.86t4.51,15.83a15.22,15.22,0,0,0,23.81.16q4.43-5.65,4.42-15.71,0-10.49-4.29-16.3A13.78,13.78,0,0,0,500.53,208.58Z"/><path class="cls-1" d="M600,264H585.29L558.6,221.69a59.9,59.9,0,0,1-3.25-5.59h-.19q.38,3.57.37,10.9v37H541.75V196.65h15.72l25.7,41q1.77,2.78,3.25,5.5h.18a75.25,75.25,0,0,1-.36-9.26V196.65H600Z"/><path class="cls-1" d="M610.93,261.43v-15a27.43,27.43,0,0,0,8.54,5.14,26.33,26.33,0,0,0,9.3,1.72,19.57,19.57,0,0,0,4.81-.52,11,11,0,0,0,3.44-1.43,6.18,6.18,0,0,0,2.05-2.16,5.58,5.58,0,0,0,.68-2.7,6,6,0,0,0-1.09-3.53,11.69,11.69,0,0,0-2.95-2.86,31.2,31.2,0,0,0-4.45-2.54q-2.58-1.22-5.56-2.49-7.59-3.28-11.32-8a18,18,0,0,1-3.72-11.47,18.91,18.91,0,0,1,2-9,17.79,17.79,0,0,1,5.53-6.22,24.44,24.44,0,0,1,8.11-3.6,40.53,40.53,0,0,1,9.76-1.15,55.7,55.7,0,0,1,9,.64,33.89,33.89,0,0,1,7.2,2v14a21.57,21.57,0,0,0-3.54-2.06,28.7,28.7,0,0,0-11.82-2.63,19.06,19.06,0,0,0-4.51.49,11.55,11.55,0,0,0-3.44,1.38,6.79,6.79,0,0,0-2.16,2.14,5.15,5.15,0,0,0-.77,2.8,5.54,5.54,0,0,0,.85,3,10.32,10.32,0,0,0,2.44,2.53,26.42,26.42,0,0,0,3.84,2.35q2.26,1.15,5.11,2.38a55.31,55.31,0,0,1,7,3.59,24.82,24.82,0,0,1,5.3,4.3,16.64,16.64,0,0,1,3.39,5.47,22.59,22.59,0,0,1-.88,16.63,17.1,17.1,0,0,1-5.58,6.2,23.71,23.71,0,0,1-8.2,3.41,45.48,45.48,0,0,1-9.87,1,52.58,52.58,0,0,1-10.14-.94A29.43,29.43,0,0,1,610.93,261.43Z"/></g></g></svg>