<svg xmlns="http://www.w3.org/2000/svg" viewBox="0 0 969.43 460.71"><defs><style>.cls-1{fill:#ffb000;}</style></defs><g id="Layer_2" data-name="Layer 2"><g id="Layer_1-2" data-name="Layer 1"><path class="cls-1" d="M727.91,107.53c-11.1,4.65-22.45,9-33.87,13-12.93,4.5-26.32,8.65-39.79,12.34-4.74,1.29-9.74,2.58-14.84,3.83-18.61,4.6-37.76,8.39-56.91,11.26-7.68,1.16-15.47,2.2-23.15,3.07-20.49,2.33-41.44,3.71-62.24,4.08-3.95.09-8.12.13-12.39.13s-8.44,0-12.39-.13c-20.8-.37-41.74-1.75-62.24-4.08-7.68-.87-15.47-1.91-23.15-3.07-19.16-2.87-38.31-6.66-56.92-11.26-5-1.23-10-2.53-14.82-3.83-13.44-3.68-26.83-7.83-39.8-12.33-11.43-4-22.77-8.32-33.88-13,12.59,2.34,25.4,4.5,38.23,6.46,13.48,2.06,27,3.9,40.18,5.48,5.27.65,10,1.18,14.39,1.66,18.62,2,37.57,3.72,56.32,5,7.79.51,15,1,22.08,1.3,19.84,1,40,1.62,60,1.77,8,.08,16,.08,23.9,0,20-.15,40.2-.75,60.05-1.77,7.18-.36,14.61-.8,22.08-1.31,18.9-1.26,37.86-2.94,56.32-5,4.34-.47,9-1,14.39-1.66,13.28-1.58,26.8-3.44,40.18-5.49C702.49,112,715.3,109.87,727.91,107.53Z"/><path class="cls-1" d="M327.62,66.66c9-1,18.16-1.92,27.31-2.74a220.54,220.54,0,0,0-20.29,37.34c-10.13-1.21-20.62-2.63-31.24-4.21A232,232,0,0,1,327.62,66.66Z"/><path class="cls-1" d="M382.94,25.64c3.17-.59,6.35-1.14,9.56-1.66a161.53,161.53,0,0,0-29.91,29.49q-12,1-23.87,2.22a216,216,0,0,1,40.07-29.27v0h0Z"/><path class="cls-1" d="M414.32,10.42c-3.43,1.73-6.79,3.58-10.08,5.6-2.26.31-4.52.65-6.76,1Q405.75,13.35,414.32,10.42Z"/><path class="cls-1" d="M406.84,60.18q4.82-.26,9.68-.47a297.43,297.43,0,0,0-14.67,47.82c-.68,0-1.36-.08-2-.14-15-1-30.27-2.31-45.34-3.89A213.86,213.86,0,0,1,373.9,62.34l9.05-.66C391,61.11,399,60.61,406.84,60.18Z"/><path class="cls-1" d="M436,18.55c1.65-.15,3.3-.28,5-.39-7.35,8.39-14.07,19-20,31.59-4.88.21-9.76.44-14.61.71-7.88.41-16,.92-24,1.5l-1.5.11a149,149,0,0,1,11.74-14.31A116.12,116.12,0,0,1,412,21.12h0q4.52-.59,9-1.09C426.07,19.46,431.1,19,436,18.55Z"/><path class="cls-1" d="M462.52.78a66.39,66.39,0,0,0-15.2,10.82h0q-5.94.36-11.83.88c-3.53.29-7.13.63-10.73,1A124.27,124.27,0,0,1,462.52.78Z"/><path class="cls-1" d="M471.8,58.18l2.48,0c-.84,14.32-1.42,31-1.94,52-16.47-.16-33.22-.65-49.86-1.47,1.1-14.68,3.11-32.29,8.36-49.61C444.49,58.6,458.18,58.29,471.8,58.18Z"/><path class="cls-1" d="M476.63,16.55h1.5c-1.35,10.05-2.39,20.23-3.23,31.87-1.07,0-2.13,0-3.19,0-12.47.09-25,.36-37.49.79q1.92-5.05,4.3-9.95A88.65,88.65,0,0,1,454,17.3C461.57,16.89,469.13,16.64,476.63,16.55Z"/><path class="cls-1" d="M480.64,0c-.58,3.52-1.13,7-1.64,10.43l-2.45,0c-5.18.08-10.37.21-15.57.43A55.39,55.39,0,0,1,480.64,0Z"/><path class="cls-1" d="M555.12,10.42q8.55,2.92,16.8,6.59-3.34-.53-6.71-1h0Q560.25,13,555.12,10.42Z"/><path class="cls-1" d="M630.7,55.69c-7.93-.82-15.9-1.55-23.86-2.22A161.64,161.64,0,0,0,576.92,24q4.8.78,9.57,1.67c1.37.24,2.74.5,4.15.76h0A216.9,216.9,0,0,1,630.7,55.69Z"/><path class="cls-1" d="M666,97.05c-10.63,1.58-21.12,3-31.25,4.21a220.54,220.54,0,0,0-20.29-37.34q13.69,1.23,27.31,2.74h0A233.7,233.7,0,0,1,666,97.05Z"/><path class="cls-1" d="M534,12.48q-5.88-.51-11.83-.88h0A66.91,66.91,0,0,0,506.9.78a124.41,124.41,0,0,1,37.76,12.71C540.86,13.1,537.33,12.76,534,12.48Z"/><path class="cls-1" d="M588.65,52.05l-1.5-.11c-8.8-.62-16.66-1.1-24-1.48q-7.27-.41-14.61-.71c-6-12.62-12.7-23.21-20-31.61,1.65.13,3.32.26,5,.41,4.58.39,9.47.87,14.94,1.47,3,.33,6,.69,9,1.07h0a116,116,0,0,1,19.55,16.67A151.36,151.36,0,0,1,588.65,52.05Z"/><path class="cls-1" d="M615,103.5c-15.08,1.58-30.31,2.89-45.35,3.89-.67.06-1.35.09-2,.14A296.42,296.42,0,0,0,552.9,59.71c3.23.14,6.47.3,9.69.47,7.33.39,15.14.88,23.89,1.49,3,.21,6,.42,9,.66A213.07,213.07,0,0,1,615,103.5Z"/><path class="cls-1" d="M492.9,10.45l-2.47,0C489.91,7,489.37,3.52,488.78,0a55.43,55.43,0,0,1,19.67,10.88C503.26,10.66,498.07,10.53,492.9,10.45Z"/><path class="cls-1" d="M535.21,49.23c-12.49-.43-25-.7-37.47-.79-1.07,0-2.15,0-3.22,0-.84-11.64-1.88-21.82-3.23-31.87h1.51c7.51.09,15.05.34,22.58.75a88.7,88.7,0,0,1,15.53,22Q533.28,44.18,535.21,49.23Z"/><path class="cls-1" d="M546.94,108.71c-16.62.82-33.37,1.31-49.86,1.47-.51-21-1.1-37.7-1.94-52l2.51,0c13.6.11,27.28.42,40.93.92C543.83,76.42,545.84,94,546.94,108.71Z"/><path class="cls-1" d="M241.52,353.18c11.11-4.65,22.45-9,33.87-13,12.93-4.5,26.32-8.65,39.8-12.33,4.74-1.3,9.74-2.59,14.83-3.84,18.61-4.59,37.77-8.38,56.91-11.26,7.68-1.16,15.47-2.2,23.15-3.06,20.49-2.34,41.44-3.72,62.24-4.09,3.95-.09,8.12-.13,12.4-.13s8.43,0,12.38.13c20.8.37,41.74,1.75,62.24,4.09,7.68.86,15.47,1.9,23.15,3.06,19.16,2.88,38.32,6.67,56.92,11.26,5,1.23,10,2.53,14.83,3.84,13.44,3.67,26.82,7.82,39.79,12.32,11.43,4,22.78,8.32,33.88,13-12.59-2.33-25.4-4.5-38.23-6.46-13.48-2.06-27-3.9-40.17-5.48-5.28-.64-10-1.18-14.4-1.65-18.62-2-37.57-3.72-56.32-5-7.79-.52-15-.95-22.08-1.31-19.84-1-40-1.62-60-1.77-7.95-.08-16-.08-23.9,0-20,.15-40.21.75-60.06,1.77-7.18.37-14.61.81-22.08,1.32-18.9,1.26-37.86,2.93-56.32,5-4.34.46-9.05,1-14.39,1.65-13.28,1.59-26.8,3.44-40.18,5.49C266.94,348.68,254.14,350.85,241.52,353.18Z"/><path class="cls-1" d="M641.81,394.05q-13.56,1.5-27.31,2.74a220.43,220.43,0,0,0,20.29-37.33c10.13,1.2,20.62,2.63,31.24,4.2A232,232,0,0,1,641.81,394.05Z"/><path class="cls-1" d="M586.49,435.08q-4.75.87-9.55,1.65a161.42,161.42,0,0,0,29.9-29.48q12-1,23.87-2.22a216.93,216.93,0,0,1-40.07,29.27h0Z"/><path class="cls-1" d="M555.11,450.29c3.43-1.73,6.79-3.58,10.08-5.6,2.27-.3,4.52-.65,6.76-1C566.45,446.14,560.83,448.35,555.11,450.29Z"/><path class="cls-1" d="M562.59,400.53q-4.82.25-9.68.48a297.88,297.88,0,0,0,14.67-47.83c.68.05,1.36.09,2,.15,15,1,30.27,2.3,45.34,3.88a213.86,213.86,0,0,1-19.42,41.16q-4.53.36-9,.66C578.46,399.61,570.43,400.1,562.59,400.53Z"/><path class="cls-1" d="M533.44,442.17c-1.66.14-3.31.28-5,.39,7.34-8.4,14.06-19,20-31.6q7.34-.31,14.61-.71c7.88-.41,16-.92,24-1.49l1.5-.11A150.05,150.05,0,0,1,576.92,423a115.64,115.64,0,0,1-19.5,16.65h0c-3,.39-6,.74-9,1.08C543.37,441.25,538.33,441.75,533.44,442.17Z"/><path class="cls-1" d="M506.91,459.93a66.66,66.66,0,0,0,15.21-10.82h0q5.94-.36,11.83-.87c3.53-.3,7.13-.64,10.74-1A124.06,124.06,0,0,1,506.91,459.93Z"/><path class="cls-1" d="M497.64,402.53l-2.49,0c.84-14.31,1.43-31,1.94-52,16.47.15,33.23.64,49.86,1.46-1.1,14.68-3.11,32.29-8.36,49.62C524.94,402.12,511.25,402.42,497.64,402.53Z"/><path class="cls-1" d="M492.8,444.17h-1.5c1.35-10.05,2.39-20.24,3.23-31.88l3.19,0q18.7-.15,37.5-.79-1.92,5-4.31,9.94a88.46,88.46,0,0,1-15.52,22C507.86,443.82,500.3,444.07,492.8,444.17Z"/><path class="cls-1" d="M488.79,460.71c.58-3.52,1.13-7,1.65-10.43l2.44,0q7.77-.11,15.58-.43A55.52,55.52,0,0,1,488.79,460.71Z"/><path class="cls-1" d="M414.32,450.29q-8.56-2.91-16.81-6.59,3.35.54,6.72,1h0Q409.17,447.7,414.32,450.29Z"/><path class="cls-1" d="M338.73,405c7.93.81,15.9,1.55,23.86,2.22a161.38,161.38,0,0,0,29.93,29.5q-4.81-.79-9.58-1.67l-4.14-.77h0A217.64,217.64,0,0,1,338.73,405Z"/><path class="cls-1" d="M303.41,363.66c10.62-1.57,21.11-3,31.24-4.2a220.43,220.43,0,0,0,20.29,37.33q-13.69-1.23-27.31-2.74h0A232.79,232.79,0,0,1,303.41,363.66Z"/><path class="cls-1" d="M435.48,448.24q5.88.51,11.83.87s0,0,0,0a67.17,67.17,0,0,0,15.21,10.8,124.14,124.14,0,0,1-37.76-12.71C428.57,447.61,432.11,448,435.48,448.24Z"/><path class="cls-1" d="M380.78,408.66l1.5.11c8.8.62,16.66,1.11,24,1.48,4.85.27,9.73.5,14.61.71,6,12.63,12.7,23.21,20.05,31.61-1.66-.12-3.33-.26-5-.4-4.58-.39-9.47-.88-14.94-1.48-3-.33-6-.69-9-1.07h0A115.58,115.58,0,0,1,392.52,423,150.18,150.18,0,0,1,380.78,408.66Z"/><path class="cls-1" d="M354.49,357.21c15.07-1.58,30.3-2.88,45.34-3.88.67-.06,1.35-.1,2-.15A297.88,297.88,0,0,0,416.53,401c-3.23-.15-6.47-.31-9.68-.48-7.34-.39-15.15-.88-23.9-1.49q-4.51-.3-9-.65A213.43,213.43,0,0,1,354.49,357.21Z"/><path class="cls-1" d="M476.53,450.26l2.48,0c.51,3.45,1.06,6.91,1.64,10.43A55.52,55.52,0,0,1,461,449.83C466.17,450.05,471.37,450.19,476.53,450.26Z"/><path class="cls-1" d="M434.23,411.49c12.49.42,25,.69,37.46.79l3.22,0c.84,11.64,1.88,21.83,3.23,31.88h-1.51c-7.51-.1-15.05-.35-22.58-.76a88.46,88.46,0,0,1-15.52-22Q436.15,416.53,434.23,411.49Z"/><path class="cls-1" d="M422.49,352c16.62-.82,33.38-1.31,49.86-1.46.51,21,1.1,37.7,1.94,52l-2.51,0c-13.6-.11-27.28-.41-40.93-.91C425.6,384.29,423.59,366.68,422.49,352Z"/><path class="cls-1" d="M49.35,255.49Q41.18,260.4,29,260.4q-13.48,0-21.25-7.76T0,231.27Q0,217.58,8.49,209t22.6-8.63a44.24,44.24,0,0,1,15.65,2.55v12.27q-6.47-3.88-15.81-3.88a16.67,16.67,0,0,0-12.76,5.28q-4.92,5.29-4.93,14.12t4.43,13.86q4.41,4.89,11.93,4.9a16,16,0,0,0,7.17-1.34V236.74H25.59V226.29H49.35Z"/><path class="cls-1" d="M83,260.4q-12,0-19.55-8.13t-7.56-21.16q0-13.79,7.67-22.29t20.34-8.5q12,0,19.34,8.14t7.38,21.47q0,13.69-7.66,22.08T83,260.4Zm.55-48.82a12.48,12.48,0,0,0-10.52,5.16q-3.9,5.17-3.9,13.68t3.9,13.65a12.29,12.29,0,0,0,10.2,5,12.41,12.41,0,0,0,10.33-4.88q3.81-4.87,3.81-13.55,0-9-3.7-14.06A11.88,11.88,0,0,0,83.58,211.58Z"/><path class="cls-1" d="M152.39,259.38H119.12V201.29H131.7v47.48h20.69Z"/><path class="cls-1" d="M159.11,259.38V201.29H178.9q29.76,0,29.76,28.32,0,13.57-8.12,21.67t-21.64,8.1Zm12.58-47.44v36.83h6.23c5.46,0,9.73-1.7,12.84-5.11s4.65-8,4.65-13.89q0-8.31-4.61-13.07t-13-4.76Z"/><path class="cls-1" d="M250.63,259.38h-33.5V201.29h32.21v10.65H229.71v12.93H248v10.61H229.71v13.29h20.92Z"/><path class="cls-1" d="M309,259.38h-12.7l-23-36.5a52.74,52.74,0,0,1-2.8-4.82h-.16c.21,2.05.31,5.19.31,9.4v31.92H258.79V201.29h13.56l22.16,35.37q1.51,2.39,2.81,4.74h.15a64.29,64.29,0,0,1-.31-8V201.29H309Z"/><path class="cls-1" d="M366.87,255.49q-8.17,4.9-20.34,4.91-13.47,0-21.24-7.76t-7.78-21.37q0-13.7,8.5-22.32t22.59-8.63a44.33,44.33,0,0,1,15.66,2.55v12.27q-6.47-3.88-15.82-3.88a16.63,16.63,0,0,0-12.75,5.28q-4.94,5.29-4.93,14.12t4.42,13.86q4.43,4.89,11.94,4.9a16.11,16.11,0,0,0,7.17-1.34V236.74H343.11V226.29h23.76Z"/><path class="cls-1" d="M426.06,259.38H412.35l-4-12.92H388.51l-3.94,12.92H370.94l20.33-58.09h14.92Zm-20.57-23-6-19.52a26.37,26.37,0,0,1-.93-5.23h-.31a22.86,22.86,0,0,1-1,5.06l-6.07,19.69Z"/><path class="cls-1" d="M471.46,211.94H455.53v47.44H442.91V211.94H427.05V201.29h44.41Z"/><path class="cls-1" d="M511.68,259.38h-33.5V201.29H510.4v10.65H490.76v12.93H509v10.61H490.76v13.29h20.92Z"/><path class="cls-1" d="M538.48,257.16v-13a24,24,0,0,0,7.36,4.44,23,23,0,0,0,8,1.48,17,17,0,0,0,4.15-.45,9.73,9.73,0,0,0,3-1.23,5.32,5.32,0,0,0,1.77-1.87,4.77,4.77,0,0,0,.58-2.33,5.2,5.2,0,0,0-.93-3,10.21,10.21,0,0,0-2.55-2.47,27.93,27.93,0,0,0-3.84-2.19q-2.22-1-4.79-2.14-6.54-2.83-9.76-6.93a15.53,15.53,0,0,1-3.21-9.89,16.21,16.21,0,0,1,1.75-7.79,15.22,15.22,0,0,1,4.77-5.37,20.93,20.93,0,0,1,7-3.1,34.61,34.61,0,0,1,8.41-1,49.3,49.3,0,0,1,7.73.54,29.39,29.39,0,0,1,6.21,1.69v12.11a17.92,17.92,0,0,0-3-1.78,23.36,23.36,0,0,0-3.41-1.28,24.46,24.46,0,0,0-3.49-.75,23.94,23.94,0,0,0-3.29-.24A16.63,16.63,0,0,0,557,211a10.12,10.12,0,0,0-3,1.2,5.84,5.84,0,0,0-1.86,1.84,4.44,4.44,0,0,0-.67,2.41,4.74,4.74,0,0,0,.74,2.61,8.83,8.83,0,0,0,2.11,2.19,21.37,21.37,0,0,0,3.31,2c1.3.66,2.76,1.34,4.4,2a50.29,50.29,0,0,1,6,3.1,21.52,21.52,0,0,1,4.57,3.71,14.51,14.51,0,0,1,2.93,4.72,17.41,17.41,0,0,1,1,6.18,17.1,17.1,0,0,1-1.77,8.16,14.94,14.94,0,0,1-4.81,5.35,20.7,20.7,0,0,1-7.07,2.94,39.68,39.68,0,0,1-8.52.89,45.51,45.51,0,0,1-8.74-.81A25.72,25.72,0,0,1,538.48,257.16Z"/><path class="cls-1" d="M608.58,260.4q-12,0-19.55-8.13t-7.56-21.16q0-13.79,7.67-22.29t20.34-8.5q12,0,19.34,8.14t7.38,21.47q0,13.69-7.66,22.08T608.58,260.4Zm.55-48.82a12.48,12.48,0,0,0-10.52,5.16q-3.9,5.17-3.9,13.68t3.9,13.65a12.29,12.29,0,0,0,10.2,5,12.41,12.41,0,0,0,10.33-4.88q3.81-4.87,3.81-13.55,0-9-3.7-14.06A11.88,11.88,0,0,0,609.13,211.58Z"/><path class="cls-1" d="M677.94,259.38H644.67V201.29h12.58v47.48h20.69Z"/><path class="cls-1" d="M730.19,234.23q0,26.16-23.45,26.17Q684,260.4,684,234.83V201.29h12.62V235q0,14.08,10.59,14.09,10.41,0,10.4-13.61V201.29h12.58Z"/><path class="cls-1" d="M780.78,211.94H764.84v47.44H752.22V211.94H736.37V201.29h44.41Z"/><path class="cls-1" d="M804.75,201.29v10.13h-4.67v37.84h4.67v10.12H782.82V249.26h4.68V211.42h-4.68V201.29Z"/><path class="cls-1" d="M835.59,260.4q-12,0-19.56-8.13t-7.56-21.16q0-13.79,7.68-22.29t20.33-8.5q12,0,19.34,8.14t7.38,21.47q0,13.69-7.65,22.08T835.59,260.4Zm.54-48.82a12.51,12.51,0,0,0-10.52,5.16q-3.89,5.17-3.89,13.68t3.89,13.65a13.12,13.12,0,0,0,20.53.14q3.83-4.87,3.82-13.55,0-9-3.7-14.06A11.9,11.9,0,0,0,836.13,211.58Z"/><path class="cls-1" d="M921.93,259.38h-12.7l-23-36.5a53.42,53.42,0,0,1-2.81-4.82h-.15c.2,2.05.31,5.19.31,9.4v31.92H871.68V201.29h13.55l22.17,35.37c1,1.59,2,3.17,2.8,4.74h.16a64.29,64.29,0,0,1-.31-8V201.29h11.88Z"/><path class="cls-1" d="M931.34,257.16v-13a23.74,23.74,0,0,0,7.36,4.44,23,23,0,0,0,8,1.48,17,17,0,0,0,4.15-.45,9.73,9.73,0,0,0,3-1.23,5.32,5.32,0,0,0,1.77-1.87,4.77,4.77,0,0,0,.59-2.33,5.14,5.14,0,0,0-.94-3,10.21,10.21,0,0,0-2.55-2.47,27.93,27.93,0,0,0-3.84-2.19c-1.48-.7-3.07-1.41-4.79-2.14q-6.54-2.83-9.75-6.93a15.48,15.48,0,0,1-3.22-9.89,16.32,16.32,0,0,1,1.75-7.79,15.15,15.15,0,0,1,4.78-5.37,20.78,20.78,0,0,1,7-3.1,34.67,34.67,0,0,1,8.41-1,49.21,49.21,0,0,1,7.73.54,29.65,29.65,0,0,1,6.22,1.69v12.11a18.41,18.41,0,0,0-3.06-1.78,22.93,22.93,0,0,0-3.41-1.28,24.62,24.62,0,0,0-3.48-.75,24.19,24.19,0,0,0-3.3-.24,16.75,16.75,0,0,0-3.89.42,9.94,9.94,0,0,0-3,1.2,5.77,5.77,0,0,0-1.87,1.84,4.52,4.52,0,0,0-.66,2.41,4.66,4.66,0,0,0,.74,2.61,8.6,8.6,0,0,0,2.1,2.19,21.86,21.86,0,0,0,3.31,2q1.95,1,4.4,2a49.54,49.54,0,0,1,6,3.1,21.84,21.84,0,0,1,4.58,3.71,14.66,14.66,0,0,1,2.92,4.72,17.41,17.41,0,0,1,1,6.18,17.1,17.1,0,0,1-1.77,8.16,14.85,14.85,0,0,1-4.81,5.35,20.62,20.62,0,0,1-7.07,2.94,39.66,39.66,0,0,1-8.51.89,45.61,45.61,0,0,1-8.75-.81A25.65,25.65,0,0,1,931.34,257.16Z"/></g></g></svg>