<svg xmlns="http://www.w3.org/2000/svg" viewBox="0 0 298.83 340.76"><defs><style>.cls-1{fill:#232e44;}.cls-2{fill:#00d9ff;}</style></defs><g id="Layer_2" data-name="Layer 2"><g id="Layer_1-2" data-name="Layer 1"><path class="cls-1" d="M222.71,116.54,113.21,30.09a2.29,2.29,0,0,0-2.83,0L.88,116.54a2.29,2.29,0,0,0,1.43,4.1h219a2.3,2.3,0,0,0,1.43-4.1ZM15.49,113.77l95.38-75.31a1.47,1.47,0,0,1,1.84,0l95.4,75.31Z"/><path class="cls-1" d="M191,62.3a1.38,1.38,0,0,1-1.89.22L114.56,3.68a4.44,4.44,0,0,0-5.54,0L34.49,62.52a1.35,1.35,0,0,1-1.68-2.12L107.34,1.55a7.15,7.15,0,0,1,8.9,0L190.77,60.4a1.3,1.3,0,0,1,.51.9A1.34,1.34,0,0,1,191,62.3Z"/><path class="cls-1" d="M116.62,250.16a101.25,101.25,0,0,1,.62-11.16c.15-1.43.34-2.88.58-4.42a.86.86,0,0,0-.2-.69.83.83,0,0,0-.64-.3H8.7a2,2,0,0,0-1.95,2v29.18a2,2,0,0,0,1.95,2H117a.83.83,0,0,0,.64-.3.85.85,0,0,0,.2-.68c-.24-1.54-.43-3-.58-4.42A101.44,101.44,0,0,1,116.62,250.16Zm-4.22,10.45.13,1.34h-101V238.36H112.53l-.13,1.35c-.34,3.48-.5,7-.5,10.45S112.06,257.14,112.4,260.61Z"/><path class="cls-1" d="M298.5,256.58a81.34,81.34,0,0,1-19.13,46.35,82.24,82.24,0,0,1-42.68,26.38c-2.37.6-4.85,1.06-7.47,1.54l-.22,0c-1.17.2-2.37.42-3.58.67l-5.32,1v8.17l-11.88-7.89-2-1.46-1.76-1.27-1-.74,16.71-11.08V326l7.44-1a66,66,0,0,0,19.07-5.36c26.22-12,41.56-32.25,45.59-60.09,5.65-39.09-21.6-77.09-60.73-84.71a78.6,78.6,0,0,0-14.83-1.44,75.55,75.55,0,0,0-75.19,64C137.1,265.23,145.91,289,167.64,308c2.39,2.09,2.37,3.09,2.09,4.18a2.81,2.81,0,0,1-2.78,2.1,3.32,3.32,0,0,1-2.06-.76A81.59,81.59,0,0,1,141,282a79.77,79.77,0,0,1-6.61-34,83.11,83.11,0,0,1,5.95-29.08,81.86,81.86,0,0,1,62.43-50.17,96.27,96.27,0,0,1,15.07-1.24c21.47,0,40.55,8.07,56.7,24C292.55,209.24,300.61,231.13,298.5,256.58Z"/><path class="cls-2" d="M268.4,225.67c-.58-1.25-1.25-2.51-2-3.75a57.28,57.28,0,0,0-99.69,0c-.68,1.19-1.34,2.46-1.95,3.75a57.27,57.27,0,0,0,0,49c.61,1.29,1.27,2.55,1.95,3.75a57.28,57.28,0,0,0,99.69,0c.71-1.25,1.38-2.52,2-3.76a57.27,57.27,0,0,0,0-49Zm-33-26.82a54.92,54.92,0,0,1,28.5,24l.47.81-.87.36a111.42,111.42,0,0,1-12.37,4.13l-.78.21-.22-.78a65.16,65.16,0,0,0-7.56-17.67,44.28,44.28,0,0,0-8-9.65l-3.2-2.84Zm-4.26,36.45-.05-.78.77-.09a130.54,130.54,0,0,0,15.72-2.66l.81-.19.17.81a87.19,87.19,0,0,1,0,35.54l-.17.81-.81-.19a128.26,128.26,0,0,0-15.72-2.66l-.77-.09.05-.78c.32-4.84.49-9.84.49-14.86S231.44,240.13,231.12,235.3Zm-7-38.4c10.34,3.82,19.08,15.51,23.36,31.27l.22.81-.82.19a130.46,130.46,0,0,1-15.23,2.6l-.83.09-.07-.84a139.34,139.34,0,0,0-3.23-20.76,68.67,68.67,0,0,0-2.05-6.95,33.47,33.47,0,0,0-2.35-5.24l-1.11-1.94Zm4.77,53.26c0,5-.15,9.88-.46,14.57l-.06.82-.82-.06a141.48,141.48,0,0,0-22,0l-.82.06,0-.82c-.31-4.68-.48-9.59-.48-14.57s.17-9.88.48-14.57l0-.82.82.06a141.48,141.48,0,0,0,22,0l.82-.06.06.82C228.78,240.28,228.93,245.18,228.93,250.16ZM216.6,195.52c2.23,0,5.6,4,8.37,15.38.71,2.94,1.34,6.12,1.86,9.52s1,7,1.3,10.86l.08.83-.83.06c-3.51.28-7.14.42-10.78.42s-7.27-.14-10.79-.42l-.81-.06.06-.83a139.22,139.22,0,0,1,3.17-20.38C211,199.57,214.37,195.52,216.6,195.52Zm-5.46.61L210,198.07a49.1,49.1,0,0,0-4.39,12.19A140.65,140.65,0,0,0,202.41,231l-.07.84-.83-.09a129.93,129.93,0,0,1-15.22-2.6l-.83-.19.22-.81c4.29-15.76,13-27.45,23.36-31.27ZM202.08,265l.06.79-.79.08a131.31,131.31,0,0,0-15.71,2.67l-.81.2-.17-.82a87.19,87.19,0,0,1,0-35.54l.17-.81.81.19a131.31,131.31,0,0,0,15.71,2.67l.79.08-.06.79c-.32,4.76-.48,9.75-.48,14.85S201.76,260.25,202.08,265Zm-32.76-42.2a54.94,54.94,0,0,1,28.49-24l4-1.47-3.19,2.84a45,45,0,0,0-8,9.65,65.55,65.55,0,0,0-7.55,17.67l-.21.78-.79-.21A112.81,112.81,0,0,1,169.72,224l-.87-.36Zm-1.71,51.52-.34-.7a54.55,54.55,0,0,1,0-46.95l.34-.69.71.29a111.19,111.19,0,0,0,13.17,4.44l.75.21-.16.75a89.9,89.9,0,0,0,0,37l.16.75-.75.21A113,113,0,0,0,168.32,274Zm30.2,27.14a54.94,54.94,0,0,1-28.49-24l-.47-.82.87-.35a112.11,112.11,0,0,1,12.37-4.13l.79-.21.21.79a65.62,65.62,0,0,0,7.55,17.66,45,45,0,0,0,8,9.65l3.19,2.84ZM209,303.42c-10.34-3.82-19.07-15.51-23.36-31.26l-.22-.82.83-.19a129.58,129.58,0,0,1,15.22-2.6l.83-.09.07.84a140.08,140.08,0,0,0,3.23,20.75,49,49,0,0,0,4.39,12.2l1.11,1.94Zm7.56,1.37c-2.23,0-5.6-4-8.37-15.37-.71-2.94-1.34-6.11-1.87-9.52s-1-7-1.3-10.87l-.06-.81.81-.07a141.2,141.2,0,0,1,21.57,0l.83.07-.08.81A138.12,138.12,0,0,1,225,289.42C222.2,300.76,218.83,304.79,216.6,304.79Zm5.45-.6,1.11-1.94a48.42,48.42,0,0,0,4.4-12.2,139,139,0,0,0,3.23-20.75l.07-.84.83.09a130.46,130.46,0,0,1,15.23,2.6l.82.19-.22.82c-4.28,15.75-13,27.44-23.36,31.26Zm41.83-26.68a54.92,54.92,0,0,1-28.5,24l-4,1.47,3.2-2.84a44.28,44.28,0,0,0,8-9.65,65,65,0,0,0,7.56-17.67l.22-.78.78.21a110.73,110.73,0,0,1,12.37,4.13l.87.35Zm2.05-3.88-.33.7-.72-.3a113.06,113.06,0,0,0-13.17-4.43l-.75-.21.17-.75a90.36,90.36,0,0,0,0-37l-.17-.75.75-.21a109.45,109.45,0,0,0,13.17-4.44l.72-.29.33.69a54.64,54.64,0,0,1,0,46.95Z"/><path class="cls-1" d="M64.55,221.24H35.93a3.64,3.64,0,0,1-3.63-3.63V139.87a3.64,3.64,0,0,1,3.63-3.63H64.55a3.63,3.63,0,0,1,3.62,3.63v77.74A3.63,3.63,0,0,1,64.55,221.24Zm-28.62-82a.63.63,0,0,0-.63.63v77.74a.63.63,0,0,0,.63.63H64.55a.63.63,0,0,0,.62-.63V139.87a.63.63,0,0,0-.62-.63Z"/><path class="cls-1" d="M118.93,221.23H97.47a3.63,3.63,0,0,1-3.62-3.62V139.87a3.64,3.64,0,0,1,3.63-3.63h28.63a3.63,3.63,0,0,1,3.62,3.62v60.19a3,3,0,0,1-.36,1.4,98.06,98.06,0,0,0-7.69,17.77A2.88,2.88,0,0,1,118.93,221.23Zm-21.45-82a.63.63,0,0,0-.63.63v77.74a.62.62,0,0,0,.62.62h21.38A101.12,101.12,0,0,1,126.74,200V139.86a.62.62,0,0,0-.62-.62Z"/><path class="cls-1" d="M157.64,169a2.22,2.22,0,0,1-2.23-2.23V139.87a3.64,3.64,0,0,1,3.63-3.63h28.62a3.64,3.64,0,0,1,3.63,3.63v12a2.23,2.23,0,0,1-1.64,2.14,98.14,98.14,0,0,0-30.73,14.49A2.21,2.21,0,0,1,157.64,169Zm1.4-29.72a.63.63,0,0,0-.63.63v25.38a100.87,100.87,0,0,1,29.88-13.92V139.87a.63.63,0,0,0-.63-.63Z"/></g></g></svg>