<svg xmlns="http://www.w3.org/2000/svg" viewBox="0 0 294.32 262.3"><defs><style>.cls-1,.cls-2{fill:#232e44;}.cls-1{stroke:#232e44;stroke-miterlimit:10;stroke-width:0.5px;}.cls-3{fill:#00d9ff;}</style></defs><g id="Layer_2" data-name="Layer 2"><g id="Layer_1-2" data-name="Layer 1"><path class="cls-1" d="M19.91,136.4v73.82a.42.42,0,0,0,.42.43H43.94a.43.43,0,0,0,.43-.43V136.4a.43.43,0,0,0-.43-.43H20.33A.42.42,0,0,0,19.91,136.4Zm22.24,72.46h-20a.43.43,0,0,1-.43-.43V138.19a.43.43,0,0,1,.43-.43h20a.43.43,0,0,1,.43.43v70.24A.43.43,0,0,1,42.15,208.86Z"/><path class="cls-1" d="M63.67,136.4v73.82a.43.43,0,0,0,.43.43H87.7a.43.43,0,0,0,.43-.43V136.4a.43.43,0,0,0-.43-.43H64.1A.43.43,0,0,0,63.67,136.4Zm22.24,72.46h-20a.43.43,0,0,1-.43-.43V138.19a.43.43,0,0,1,.43-.43h20a.43.43,0,0,1,.43.43v70.24A.43.43,0,0,1,85.91,208.86Z"/><path class="cls-1" d="M206.18,136.4v73.82a.43.43,0,0,0,.43.43h23.61a.43.43,0,0,0,.43-.43V136.4a.43.43,0,0,0-.43-.43H206.61A.43.43,0,0,0,206.18,136.4Zm22.24,72.46h-20a.43.43,0,0,1-.43-.43V138.19a.43.43,0,0,1,.43-.43h20a.43.43,0,0,1,.43.43v70.24A.43.43,0,0,1,228.42,208.86Z"/><path class="cls-1" d="M249.94,136.4v73.82a.43.43,0,0,0,.43.43H274a.43.43,0,0,0,.43-.43V136.4A.43.43,0,0,0,274,136H250.37A.43.43,0,0,0,249.94,136.4Zm22.25,72.46h-20a.43.43,0,0,1-.43-.43V138.19a.43.43,0,0,1,.43-.43h20a.42.42,0,0,1,.42.43v70.24A.42.42,0,0,1,272.19,208.86Z"/><path class="cls-2" d="M285.29,225H9a1.81,1.81,0,0,0-1.81,1.81v33.67A1.81,1.81,0,0,0,9,262.3H285.29a1.81,1.81,0,0,0,1.81-1.81V226.82A1.81,1.81,0,0,0,285.29,225Zm-3.88,32.32H12.89a.72.72,0,0,1-.71-.72V230.68a.71.71,0,0,1,.71-.71H281.41a.72.72,0,0,1,.72.71v25.93A.73.73,0,0,1,281.41,257.33Z"/><path class="cls-1" d="M183.43,148.93v-.3c-.06-2.2-.11-4.48-.36-6.65l0-.25a2.59,2.59,0,0,0-1.72-2.21l-1.84-.68c-1.42-.55-3.08-1.17-4.69-1.72A83,83,0,0,0,162.23,134a87.12,87.12,0,0,0-11.84-1.24c-1.17,0-2.24-.06-3.27-.06a87.05,87.05,0,0,0-9.87.56,82.55,82.55,0,0,0-11.3,2c-2.29.58-4.5,1.23-6.59,1.91-1.58.52-3.18,1.12-4.73,1.71l-1.93.74a2.31,2.31,0,0,0-1.54,2l0,.25c-.15,1.68-.33,3.57-.39,5.41a79.25,79.25,0,0,0,1.19,17.1,73.78,73.78,0,0,0,3.61,13.12,70.61,70.61,0,0,0,13.51,22.25,72.05,72.05,0,0,0,16.62,13.7,2.46,2.46,0,0,0,2.87,0l.68-.43,1-.63c1.34-.86,2.59-1.68,3.79-2.55a70.51,70.51,0,0,0,26.61-38.15A76,76,0,0,0,183.43,148.93Zm-1.74,6.21a76.27,76.27,0,0,1-2.92,16.78,71.24,71.24,0,0,1-3.35,9,69.08,69.08,0,0,1-14.77,21,72.39,72.39,0,0,1-11.57,9.1,3.59,3.59,0,0,1-2,.59,3.78,3.78,0,0,1-2-.58,70.74,70.74,0,0,1-17-15A67,67,0,0,1,119.74,183a71.93,71.93,0,0,1-5.68-16.45,78.7,78.7,0,0,1-1.51-10.71,86.07,86.07,0,0,1-.07-10.09c0-.87.12-1.61.2-2.26a3.66,3.66,0,0,1,2.35-2.88l2.32-.83c1.55-.55,3.17-1.12,4.79-1.63a76.15,76.15,0,0,1,10.15-2.39,85.42,85.42,0,0,1,15.06-1.25,80.88,80.88,0,0,1,11.28.75,86,86,0,0,1,15.78,3.63c.89.3,1.78.63,2.64.94l.08,0c.67.25,1.3.49,2,.71a3.61,3.61,0,0,1,2.48,3.24A76.54,76.54,0,0,1,181.69,155.14Z"/><path class="cls-3" d="M169.46,160.52,148,183.66c-1.75,1.89-3.23,2.81-4.56,2.83h-.11c-1.68,0-3.39-1.53-4.52-2.67l-12.25-12.41a2.68,2.68,0,0,1-.76-1.87,2.63,2.63,0,0,1,2.63-2.61,2.66,2.66,0,0,1,1.88.78l12.24,12.41a1.08,1.08,0,0,0,1.58,0l21.44-23.15a2.64,2.64,0,0,1,1.84-.84,2.55,2.55,0,0,1,1.88.71A2.61,2.61,0,0,1,169.46,160.52Z"/><path class="cls-2" d="M147.06,0A43.86,43.86,0,1,0,191,43.91,44,44,0,0,0,147.06,0Zm37.67,46.76a37.26,37.26,0,0,1-3.64,13.52,38.24,38.24,0,0,1-20.28,18.79,37.36,37.36,0,0,1-13.75,2.61,37.94,37.94,0,0,1-37.65-34.8c-.08-1.05-.11-2.05-.11-3a37.77,37.77,0,1,1,75.53,0C184.83,44.91,184.8,45.87,184.73,46.76Z"/><path class="cls-2" d="M292.85,116.42l0,0L201.9,60.45l-.16-.13a.59.59,0,0,0-.17-.12.6.6,0,0,0-.82.46l0,.16c0,.14-.08.25-.11.37l-.12.37c-.08.21-.15.42-.22.64l-.39,1.11c-.27.73-.53,1.39-.79,2l-.07.18-.28.65-.29.68c-.07.16-.15.33-.23.49s-.25.55-.39.85l-.06.12c-.16.33-.3.6-.44.88s-.15.3-.23.46c-.53,1-1.1,2-1.77,3.18l-.54.87-.3.48-.26.39c-.84,1.3-1.75,2.58-2.72,3.82l-.55.7-.56.69-.07.09-.69.8-.54.62c-.16.19-.35.4-.54.6l-.36.38c-.31.35-.69.74-1.07,1.12l-.16.17-.47.46c-.15.16-.37.37-.59.57l-.46.44-.28.26-.51.47-.39.34-.44.39-.69.59c-.86.71-1.75,1.41-2.64,2.07l-.12.09-.64.46s0,0-.1.08l-.19.13c-.2.15-.42.3-.66.46l-.09.06c-.19.14-.44.3-.68.46l-.65.43-.16.1c-1,.62-2,1.22-3,1.79l-.19.11-.64.34-.19.1-.7.36-.17.08a2,2,0,0,1-.3.15l-.76.38c-1.12.53-2.23,1-3.28,1.44l-1.07.42-1.25.45-.85.29-.95.31-1.38.41-1.14.31-.22.06-.57.13c-.16,0-.43.12-.68.17l-.33.08-.77.17-.24,0-.46.09-.42.08-.1,0c-.21,0-.49.09-.77.14-.88.16-1.85.3-2.9.43-.31,0-.64.08-1,.1l-.37,0c-.18,0-.42,0-.66.07l-.35,0-.26,0-1,.07h-.1l-.44,0c-.22,0-.5,0-.78,0-1.18,0-2.48,0-3.73,0a6.87,6.87,0,0,1-.76,0l-.64,0-.7,0-.47,0c-.45,0-.87-.07-1.29-.12s-.93-.09-1.42-.16l-1.38-.19-1.28-.21-.44-.08-.27-.06-.52-.1-.25,0-.38-.08-1-.22-.87-.21-.68-.18c-1.07-.27-2.19-.6-3.41-1l-.24-.08-.63-.22-.08,0-.31-.11c-.26-.09-.53-.18-.81-.3l-.2-.07-.85-.33-1.09-.45-1-.45-.22-.1c-.47-.21-1-.44-1.43-.68l-.91-.44-.29-.16-.36-.19-.87-.46-1-.56L117.94,92l-1-.61-.7-.46c-.65-.42-1.29-.86-1.89-1.3-.3-.21-.63-.45-.94-.69l-.82-.62c-.4-.31-.81-.63-1.2-1l-1.09-.91-.57-.51-.25-.22c-.19-.17-.34-.3-.47-.43s-.5-.45-.76-.72-.56-.54-.85-.82c-1-1-2-2.11-3-3.26l-.52-.61-.73-.9c-.16-.19-.32-.39-.47-.6s-.46-.58-.7-.91-.52-.69-.76-1-.49-.69-.72-1l-.08-.12-.13-.2-.35-.51-.11-.2c-.1-.14-.22-.32-.33-.5s-.19-.29-.28-.45l-.39-.63c-.58-1-1.15-2-1.75-3.15-.11-.19-.21-.4-.31-.62s-.31-.6-.47-.94l-.43-.92-.13-.3c-.16-.34-.33-.72-.48-1.09s-.31-.73-.46-1.11c-.32-.83-.63-1.64-.9-2.43l-.25-.75c-.07-.2-.15-.43-.21-.67l-.16-.45c-.07-.26-.24-.26-.26-.26a.24.24,0,0,0-.12,0L1.54,116.36a2.63,2.63,0,0,0-1.46,3.06,2.71,2.71,0,0,0,2.71,2.08H291.51a2.71,2.71,0,0,0,2.72-2.08A2.57,2.57,0,0,0,292.85,116.42Zm-278-1.06L90,69.14l.79,1.69c.17.35.33.68.48,1s.24.49.36.72c.66,1.26,1.28,2.39,1.93,3.45l.42.7.25.4.08.11c.13.22.25.41.38.61l.12.18c.12.18.24.37.36.54l.41.62.63.89c.28.39.55.77.83,1.14s.52.7.78,1l.56.71.39.47c.12.16.25.3.36.44l.11.13c.16.2.32.38.5.58,1,1.18,2.09,2.36,3.34,3.61l1,.91c.32.32.59.57.85.8s.36.34.54.5l.85.75.69.59.54.44c.49.41,1,.78,1.33,1.07l.92.7.23.17.83.6c.7.51,1.4,1,2.08,1.43l.77.5,1,.66L116,98l1,.58.72.38.24.12c.16.09.31.18.47.25l.34.18,1,.5c.54.27,1,.5,1.56.74s.92.41,1.41.61.72.31,1.08.45l1.26.49.77.28.12,0,.27.1.13.05c.38.14.72.25,1.07.36,1.1.37,2.31.73,3.71,1.11l.8.2,1,.23,1.18.26,1.41.28.64.12c.43.08.85.14,1.36.22s1,.15,1.55.22,1.07.14,1.59.18,1,.1,1.42.13l.33,0h.29l.44,0h.18l.79,0,.84,0c1.45,0,2.9,0,4.1,0l.88,0,.66,0,1-.07.41,0c.37,0,.71,0,1.12-.1l.43,0,1-.12c1-.12,2.09-.28,3.19-.47l.82-.15.66-.13.73-.15.9-.19.35-.09c.31-.06.55-.12.79-.19l.15,0,.67-.16,1.25-.34,1.42-.43,1.09-.35c.49-.15.85-.28,1.19-.4l1.21-.45,1.22-.47c1.2-.49,2.43-1,3.64-1.6l.53-.26.2-.1.52-.26.18-.09.64-.33.3-.16.91-.49c1.32-.73,2.4-1.38,3.32-2,.33-.2.62-.39.9-.58s.54-.35.79-.53l.26-.18.58-.4.3-.22c.29-.19.56-.39.86-.62,1-.75,2-1.51,2.86-2.25l.8-.69.22-.18.56-.5.12-.11c.21-.18.41-.36.6-.55s.53-.49.78-.74.45-.42.66-.63l.18-.18c.1-.1.2-.19.29-.29l.22-.22.09-.09c.37-.38.73-.74,1.1-1.15.16-.16.28-.29.41-.44s.43-.46.61-.69.42-.45.6-.67l.75-.88c.25-.3.48-.58.71-.88s.26-.32.39-.49l.24-.29c1-1.37,2.06-2.78,3-4.19l.62-1c.15-.23.29-.46.43-.69l.19-.31c.73-1.21,1.35-2.34,1.91-3.42.09-.17.16-.32.23-.46l.06-.12c.13-.24.24-.47.36-.71l.2-.42.63-1.88,75.44,46.43Z"/><path class="cls-3" d="M159,46.67c-2-2.09-5.32-4-10-5.68l-.73-.26V26.21l1.22.13a26.67,26.67,0,0,1,9.2,2.67v-6.4a25.6,25.6,0,0,0-9.36-1.81l-1.06-.05v-6h-2.62v6l-1,.1a14.42,14.42,0,0,0-9,3.94,10.82,10.82,0,0,0-3.35,8.06,11.07,11.07,0,0,0,2.57,7.47c1.75,2.09,5.15,4.08,10.1,5.91l.72.26v14l-1.18-.08a27.61,27.61,0,0,1-7.06-1.58A25,25,0,0,1,133.2,57v6.43a26.11,26.11,0,0,0,11.39,2.61l1.1,0v7h2.62V66l1-.11c4.08-.46,7.23-1.74,9.38-3.79a10.52,10.52,0,0,0,3.17-8A10.37,10.37,0,0,0,159,46.67Zm-13.3-6.85L144.1,39c-3.45-1.72-5.2-4-5.2-6.67,0-2.23.95-5.05,5.49-5.88l1.3-.23Zm3.89,20.5-1.27.2v-13l1.54.67c3.57,1.55,5.4,3.67,5.4,6.3C155.25,56.76,154.26,59.59,149.58,60.32Z"/></g></g></svg>