<svg xmlns="http://www.w3.org/2000/svg" viewBox="0 0 24 24"><defs><style>.cls-1{fill:#cecece;}.cls-2{fill:#fff;}</style></defs><g id="Layer_2" data-name="Layer 2"><g id="Layer_1-2" data-name="Layer 1"><rect class="cls-1" width="24" height="24" rx="12"/><path class="cls-2" d="M10.84,14.13a2.51,2.51,0,0,1,.1-.66,4,4,0,0,1,.22-.57,3.8,3.8,0,0,1,.37-.56c.17-.21.31-.38.42-.5l.5-.52.18-.19a6.93,6.93,0,0,0,1.06-1.36,2.74,2.74,0,0,0,.38-1.42,2.08,2.08,0,0,0-.64-1.6,2.36,2.36,0,0,0-1.61-.58,2.84,2.84,0,0,0-1.38.36,3,3,0,0,0-1.09,1L8.15,6.4A4.36,4.36,0,0,1,9.79,5a4.84,4.84,0,0,1,2.15-.48,4.48,4.48,0,0,1,1.51.26,3.92,3.92,0,0,1,1.24.72,3.2,3.2,0,0,1,.85,1.18,3.78,3.78,0,0,1,.31,1.56,3.88,3.88,0,0,1-.1.9,4,4,0,0,1-.26.78,3.89,3.89,0,0,1-.4.7,6.87,6.87,0,0,1-.47.61l-.54.58-.36.35-.36.35-.32.33c-.12.13-.21.24-.29.34l-.22.32a1.74,1.74,0,0,0-.16.34,2,2,0,0,0-.06.34l0,1H10.84ZM11,19.3a1.15,1.15,0,0,1-.41-.41,1.16,1.16,0,0,1,.18-1.38,1.12,1.12,0,0,1,.82-.33,1.1,1.1,0,0,1,.81.33,1.07,1.07,0,0,1,.34.81,1,1,0,0,1-.16.57,1.15,1.15,0,0,1-1,.56A1.2,1.2,0,0,1,11,19.3Z"/></g></g></svg>